<svg width="23" height="23" viewBox="0 0 23 23" fill="none" xmlns="http://www.w3.org/2000/svg">
<path d="M11.025 0.251465C17.1154 0.251465 22.05 5.18604 22.05 11.2765C22.05 17.3669 17.1154 22.3015 11.025 22.3015C4.93458 22.3015 0 17.3669 0 11.2765C0 5.18604 4.93458 0.251465 11.025 0.251465ZM9.74023 6.63529L13.0966 9.85388H4.97903C4.38777 9.85388 3.9121 10.3296 3.9121 10.9208V11.6321C3.9121 12.2234 4.38777 12.699 4.97903 12.699H13.0966L9.74023 15.9176C9.30901 16.3311 9.30012 17.0201 9.72245 17.4425L10.2115 17.927C10.6293 18.3449 11.3051 18.3449 11.7185 17.927L17.6178 12.0322C18.0357 11.6143 18.0357 10.9386 17.6178 10.5252L11.7185 4.62145C11.3006 4.20357 10.6249 4.20357 10.2115 4.62145L9.72245 5.10602C9.30012 5.53279 9.30901 6.22186 9.74023 6.63529Z" fill="white"/>
</svg>
