<svg width="23" height="23" viewBox="0 0 23 23" fill="none" xmlns="http://www.w3.org/2000/svg">
<path d="M11.0248 0.251465C4.93438 0.251465 -0.00019455 5.18604 -0.00019455 11.2765C-0.00019455 17.3669 4.93438 22.3015 11.0248 22.3015C17.1152 22.3015 22.0498 17.3669 22.0498 11.2765C22.0498 5.18604 17.1152 0.251465 11.0248 0.251465ZM12.3096 6.63529L8.95317 9.85388H17.0708C17.662 9.85388 18.1377 10.3296 18.1377 10.9208V11.6321C18.1377 12.2234 17.662 12.699 17.0708 12.699H8.95317L12.3096 15.9176C12.7408 16.3311 12.7497 17.0201 12.3274 17.4425L11.8383 17.927C11.4205 18.3449 10.7447 18.3449 10.3313 17.927L4.43203 12.0322C4.01415 11.6143 4.01415 10.9386 4.43203 10.5252L10.3313 4.62145C10.7492 4.20357 11.4249 4.20357 11.8383 4.62145L12.3274 5.10602C12.7497 5.53279 12.7408 6.22186 12.3096 6.63529Z" fill="white"/>
</svg>
