<svg width="24" height="23" viewBox="0 0 24 23" fill="none" xmlns="http://www.w3.org/2000/svg">
<path d="M10.1383 13.3996C10.1383 14.3904 9.42974 14.7036 8.55922 14.7036H6.27663V11.9877H8.60477C9.54615 11.9929 10.1383 12.3882 10.1383 13.3996ZM9.74859 9.17433C9.74859 8.26562 9.05521 8.05 8.28591 8.05H6.28169V10.35H8.44281C9.20705 10.35 9.74859 10.0112 9.74859 9.17433ZM16.4445 10.3654C15.5183 10.3654 14.9009 10.9507 14.8401 11.8902H17.9882C17.9021 10.9404 17.4163 10.3654 16.4445 10.3654ZM23.3733 2.46429V20.5357C23.3733 21.8962 22.2851 23 20.9439 23H3.12858C1.78737 23 0.699219 21.8962 0.699219 20.5357V2.46429C0.699219 1.10379 1.78737 0 3.12858 0H20.9439C22.2851 0 23.3733 1.10379 23.3733 2.46429ZM14.4504 7.85491H18.388V6.8846H14.4504V7.85491ZM12.2741 13.5176C12.2741 12.2804 11.6971 11.2125 10.5027 10.8685C11.3732 10.4475 11.8287 9.95982 11.8287 8.96897C11.8287 7.00781 10.3863 6.53036 8.72118 6.53036H4.14082V16.3875H8.85277C10.6191 16.3772 12.2741 15.5199 12.2741 13.5176ZM19.9317 12.7578C19.9317 10.6478 18.7119 8.88683 16.5103 8.88683C14.3644 8.88683 12.9118 10.5194 12.9118 12.6654C12.9118 14.8884 14.2935 16.4132 16.5103 16.4132C18.1906 16.4132 19.2788 15.6482 19.8051 14.0105H18.0995C17.9123 14.6214 17.1581 14.9397 16.5711 14.9397C15.4373 14.9397 14.8452 14.2672 14.8452 13.1275H19.9165C19.9215 13.0094 19.9317 12.881 19.9317 12.7578Z" fill="white"/>
</svg>
