<svg width="24" height="23" viewBox="0 0 24 23" fill="none" xmlns="http://www.w3.org/2000/svg">
<path d="M8.15128 18.5196C8.15128 18.6147 8.04185 18.6908 7.90386 18.6908C7.74685 18.705 7.63742 18.629 7.63742 18.5196C7.63742 18.4244 7.74685 18.3484 7.88483 18.3484C8.02757 18.3341 8.15128 18.4102 8.15128 18.5196ZM6.67155 18.3055C6.63825 18.4007 6.73341 18.5101 6.87614 18.5386C6.99985 18.5861 7.14259 18.5386 7.17114 18.4435C7.19969 18.3484 7.10928 18.239 6.96655 18.1962C6.84284 18.1629 6.70486 18.2104 6.67155 18.3055ZM8.77457 18.2247C8.63659 18.258 8.54143 18.3484 8.55571 18.4577C8.56998 18.5529 8.69369 18.6147 8.83643 18.5814C8.97441 18.5481 9.06957 18.4577 9.05529 18.3626C9.04102 18.2723 8.91255 18.2104 8.77457 18.2247ZM11.9053 0C5.30602 0 0.257812 5.00799 0.257812 11.6045C0.257812 16.8788 3.57887 21.3921 8.32257 22.9806C8.93159 23.09 9.14569 22.7143 9.14569 22.4052C9.14569 22.1103 9.13142 20.4838 9.13142 19.485C9.13142 19.485 5.80084 20.1984 5.10142 18.0678C5.10142 18.0678 4.55901 16.6838 3.77871 16.3271C3.77871 16.3271 2.68913 15.5804 3.85484 15.5947C3.85484 15.5947 5.03957 15.6898 5.69141 16.8217C6.73341 18.6575 8.47958 18.1296 9.15997 17.8157C9.2694 17.0547 9.57867 16.5268 9.92124 16.2129C7.26154 15.9181 4.57805 15.5328 4.57805 10.9576C4.57805 9.64977 4.93965 8.99345 5.70093 8.15641C5.57722 7.84727 5.17279 6.57269 5.82463 4.92714C6.81905 4.618 9.10763 6.21124 9.10763 6.21124C10.0592 5.9449 11.0822 5.80698 12.0956 5.80698C13.1091 5.80698 14.132 5.9449 15.0836 6.21124C15.0836 6.21124 17.3722 4.61325 18.3666 4.92714C19.0185 6.57744 18.614 7.84727 18.4903 8.15641C19.2516 8.99821 19.7179 9.65452 19.7179 10.9576C19.7179 15.5471 16.9155 15.9133 14.2558 16.2129C14.6935 16.5887 15.0646 17.302 15.0646 18.4197C15.0646 20.0224 15.0503 22.0057 15.0503 22.3956C15.0503 22.7048 15.2692 23.0805 15.8735 22.9711C20.6314 21.3921 23.8573 16.8788 23.8573 11.6045C23.8573 5.00799 18.5046 0 11.9053 0ZM4.88256 16.4032C4.8207 16.4507 4.83498 16.5601 4.91586 16.6505C4.99199 16.7266 5.10142 16.7599 5.16328 16.698C5.22513 16.6505 5.21086 16.5411 5.12997 16.4507C5.05384 16.3746 4.94441 16.3414 4.88256 16.4032ZM4.3687 16.018C4.33539 16.0798 4.38297 16.1559 4.47813 16.2034C4.55426 16.251 4.64942 16.2367 4.68272 16.1701C4.71603 16.1083 4.66845 16.0322 4.57329 15.9847C4.47813 15.9561 4.402 15.9704 4.3687 16.018ZM5.91028 17.7111C5.83415 17.7729 5.8627 17.9156 5.97213 18.0059C6.08156 18.1153 6.21954 18.1296 6.2814 18.0535C6.34325 17.9917 6.3147 17.849 6.21954 17.7586C6.11487 17.6492 5.97213 17.635 5.91028 17.7111ZM5.36787 17.0119C5.29174 17.0595 5.29174 17.1832 5.36787 17.2925C5.444 17.4019 5.57246 17.4495 5.63432 17.4019C5.71044 17.3401 5.71044 17.2164 5.63432 17.1071C5.5677 16.9977 5.444 16.9501 5.36787 17.0119Z" fill="white"/>
</svg>
