<svg width="23" height="23" viewBox="0 0 23 23" fill="none" xmlns="http://www.w3.org/2000/svg">
<path d="M11.3396 5.60309C8.12244 5.60309 5.52751 8.23591 5.52751 11.5C5.52751 14.7641 8.12244 17.3969 11.3396 17.3969C14.5567 17.3969 17.1516 14.7641 17.1516 11.5C17.1516 8.23591 14.5567 5.60309 11.3396 5.60309ZM11.3396 15.3338C9.26057 15.3338 7.56097 13.6145 7.56097 11.5C7.56097 9.38553 9.25551 7.66624 11.3396 7.66624C13.4236 7.66624 15.1181 9.38553 15.1181 11.5C15.1181 13.6145 13.4185 15.3338 11.3396 15.3338ZM18.745 5.36188C18.745 6.12658 18.138 6.73731 17.3893 6.73731C16.6356 6.73731 16.0337 6.12144 16.0337 5.36188C16.0337 4.60231 16.6407 3.98644 17.3893 3.98644C18.138 3.98644 18.745 4.60231 18.745 5.36188ZM22.5944 6.75784C22.5084 4.91537 22.0936 3.28333 20.7633 1.93869C19.438 0.594053 17.8294 0.173212 16.0135 0.0808323C14.1419 -0.0269441 8.53217 -0.0269441 6.66058 0.0808323C4.84969 0.16808 3.24114 0.588921 1.91079 1.93356C0.580446 3.2782 0.170719 4.91024 0.079669 6.75271C-0.0265563 8.65162 -0.0265563 14.3432 0.079669 16.2422C0.165661 18.0846 0.580446 19.7167 1.91079 21.0613C3.24114 22.4059 4.84463 22.8268 6.66058 22.9192C8.53217 23.0269 14.1419 23.0269 16.0135 22.9192C17.8294 22.8319 19.438 22.4111 20.7633 21.0613C22.0885 19.7167 22.5033 18.0846 22.5944 16.2422C22.7006 14.3432 22.7006 8.65676 22.5944 6.75784ZM20.1765 18.2796C19.7819 19.2856 19.0181 20.0605 18.0216 20.466C16.5294 21.0664 12.9886 20.9279 11.3396 20.9279C9.69053 20.9279 6.14463 21.0613 4.65747 20.466C3.66604 20.0657 2.90223 19.2907 2.50262 18.2796C1.91079 16.7656 2.04737 13.1731 2.04737 11.5C2.04737 9.8269 1.91585 6.22922 2.50262 4.72035C2.89717 3.71444 3.66098 2.93947 4.65747 2.53403C6.14969 1.93356 9.69053 2.07213 11.3396 2.07213C12.9886 2.07213 16.5345 1.93869 18.0216 2.53403C19.0131 2.93434 19.7769 3.7093 20.1765 4.72035C20.7683 6.23435 20.6317 9.8269 20.6317 11.5C20.6317 13.1731 20.7683 16.7708 20.1765 18.2796Z" fill="white"/>
</svg>
