<svg width="24" height="23" viewBox="0 0 24 23" fill="none" xmlns="http://www.w3.org/2000/svg">
<path d="M21.4969 0H2.0569C1.16613 0 0.442383 0.74442 0.442383 1.65826V21.3417C0.442383 22.2556 1.16613 23 2.0569 23H21.4969C22.3876 23 23.1164 22.2556 23.1164 21.3417V1.65826C23.1164 0.74442 22.3876 0 21.4969 0ZM7.29521 19.7143H3.93459V8.73795H7.30027V19.7143H7.29521ZM5.6149 7.23884C4.53687 7.23884 3.66635 6.35067 3.66635 5.26228C3.66635 4.17388 4.53687 3.28571 5.6149 3.28571C6.68787 3.28571 7.56345 4.17388 7.56345 5.26228C7.56345 6.3558 6.69293 7.23884 5.6149 7.23884ZM19.8925 19.7143H16.5318V14.375C16.5318 13.1018 16.5065 11.4641 14.7857 11.4641C13.0346 11.4641 12.7663 12.8502 12.7663 14.2826V19.7143H9.40572V8.73795H12.6297V10.2371H12.6752C13.1257 9.37455 14.224 8.46585 15.8587 8.46585C19.2598 8.46585 19.8925 10.7402 19.8925 13.6973V19.7143Z" fill="white"/>
</svg>
