<svg width="92" height="73" viewBox="0 0 92 73" fill="none" xmlns="http://www.w3.org/2000/svg">
<g id="logo">
<g id="Group">
<g id="Group_2">
<g id="Group_3">
<path id="Vector" d="M83.4496 73C79.1151 73 75.5661 71.5131 72.8039 68.5419C70.7556 66.3386 69.4073 63.5692 68.7601 60.2323C65.5196 62.8731 61.5451 64.1921 56.8353 64.1921C53.1151 64.1921 49.7273 63.3227 46.673 61.5811C43.6213 59.8369 41.2343 57.4426 39.5121 54.3983C37.7898 51.3513 36.9287 47.9183 36.9287 44.1007C36.9287 40.2845 37.7898 36.8447 39.5121 33.7815C41.2343 30.7155 43.6125 28.3402 46.6479 26.6528C49.6857 24.9627 53.0811 24.1177 56.8353 24.1177C61.5451 24.1177 65.6908 25.3663 69.2738 27.8608L70.2961 35.6232H69.8378C68.813 31.3655 66.4915 28.4661 62.8733 26.9236C61.1007 26.1544 59.0876 25.7698 56.8353 25.7698C52.2288 25.7698 48.3978 27.4951 45.3436 30.943C42.2919 34.3922 40.766 38.7691 40.766 44.0736C40.766 49.3755 42.2994 53.7699 45.3688 57.2584C48.4406 60.7442 52.2628 62.5047 56.8353 62.5399C59.0536 62.5399 61.1686 62.1201 63.1805 61.2778C65.1948 60.4328 66.9183 59.2573 68.3522 57.7514V48.0063C68.3522 47.2019 68.1307 46.5871 67.6875 46.1646C67.2444 45.7421 66.6124 45.5308 65.7941 45.5308H64.9732V44.9783H75.0046V45.5308H74.2391C73.3856 45.5308 72.7359 45.7421 72.2903 46.1646C71.8471 46.5871 71.6419 47.2019 71.6759 48.0063V56.4838C71.8798 62.284 73.6373 66.4306 76.9484 68.9265C79.2674 70.6884 82.2713 71.57 85.9575 71.57C87.4909 71.57 89.1628 71.4047 90.9732 71.077L91.0235 71.6241C88.2941 72.5409 85.7686 73 83.4496 73Z" fill="white"/>
</g>
</g>
</g>
<g id="Group_4">
<g id="Group_5">
<g id="Group_6">
<path id="Vector_2" d="M63.2757 53.2322C63.4796 53.2322 63.6848 53.2322 63.89 53.2322V53.7847C62.9357 53.9323 61.8707 54.0068 60.6923 54.0068C59.5139 54.0068 58.0636 53.7305 56.3413 53.178C54.6191 52.6282 53.058 51.6017 51.658 50.0957C48.7939 47.0108 47.0553 43.0131 46.4409 38.0973L43.3187 13.5965L32.6729 39.4732C31.7161 41.7131 31.1345 43.5832 30.9306 45.0851H30.4219L17.1626 14.0948L14.9116 41.4557C14.8436 42.0773 15.0236 42.6285 15.4504 43.1079C15.876 43.5846 16.3443 43.8229 16.8554 43.8229H17.6763V44.3159H7.74562V43.7634H8.56646C9.4855 43.7634 10.295 43.4627 10.9937 42.8587C11.695 42.252 12.1318 41.4544 12.303 40.4645L15.526 10.4059C12.5246 4.05457 8.92526 0.877542 4.72916 0.877542C4.35399 0.877542 3.9612 0.897856 3.55078 0.937129V0.384602C4.47108 0.128652 5.22142 0 5.80179 0C6.38343 0 7.01291 0.0270846 7.69526 0.0812539C8.38014 0.135423 9.18209 0.311473 10.1024 0.606696C11.0214 0.89921 11.8914 1.33121 12.7109 1.90134C13.5293 2.46877 14.2469 3.05515 14.8612 3.66184C15.4756 4.26583 16.056 4.93482 16.6036 5.67152C17.5227 6.99055 18.2566 8.2554 18.8043 9.46879L31.137 38.2056L44.905 5.01066H45.3632L50.1221 37.5989C50.8397 42.7382 52.3844 46.6262 54.755 49.267C57.1244 51.9104 59.9646 53.2322 63.2757 53.2322Z" fill="white"/>
</g>
</g>
</g>
<path id="Vector_3" d="M1.28917 32.6465H80.9395C81.282 32.6465 81.6093 32.7928 81.851 33.0528C82.0927 33.3128 82.2287 33.6663 82.2287 34.0346V36.8081C82.2287 37.1765 82.0927 37.5299 81.851 37.7899C81.6093 38.0499 81.282 38.1962 80.9395 38.1962H1.28917C0.57786 38.1962 0 37.5746 0 36.8081V34.0346C0 33.2681 0.57786 32.6465 1.28917 32.6465Z" fill="#09060C"/>
<g id="Group_7">
<g id="Group_8">
<g id="Group_9">
<path id="Vector_4" d="M2.74219 36.4614L2.83283 33.9967H3.19541L4.03639 35.898L4.87234 33.9967H5.23492L5.30542 36.4614H4.90256L4.85723 34.9284L4.1774 36.4614H3.86014L3.19038 34.9392L3.12995 36.4614H2.74219Z" fill="white"/>
</g>
</g>
</g>
<g id="Group_10">
<g id="Group_11">
<g id="Group_12">
<path id="Vector_5" d="M8.22363 36.4614V33.9967H8.64211V36.4614H8.22363Z" fill="white"/>
</g>
</g>
</g>
<g id="Group_13">
<g id="Group_14">
<g id="Group_15">
<path id="Vector_6" d="M11.5723 36.4613V33.9966H11.9902V36.0659H13.0125L12.9823 36.4613H11.5723Z" fill="white"/>
</g>
</g>
</g>
<g id="Group_16">
<g id="Group_17">
<g id="Group_18">
<path id="Vector_7" d="M15.4199 36.4614L16.3969 33.9967H16.7494L17.6911 36.4614H17.263L17.0566 35.898H16.0595L15.8429 36.4614H15.4199ZM16.2005 35.5188H16.9206L16.5681 34.5492L16.2005 35.5188Z" fill="white"/>
</g>
</g>
</g>
<g id="Group_19">
<g id="Group_20">
<g id="Group_21">
<path id="Vector_8" d="M21.87 33.9966H22.2728V36.4613H21.9052L20.7671 34.7442V36.4613H20.3643V33.9966H20.7319L21.87 35.7138V33.9966Z" fill="white"/>
</g>
</g>
</g>
<g id="Group_22">
<g id="Group_23">
<g id="Group_24">
<path id="Vector_9" d="M24.9365 36.4614L25.9135 33.9967H26.266L27.2077 36.4614H26.7796L26.5732 35.898H25.5761L25.3595 36.4614H24.9365ZM25.7171 35.5188H26.4372L26.0847 34.5492L25.7171 35.5188Z" fill="white"/>
</g>
</g>
</g>
<g id="Group_25">
<g id="Group_26">
<g id="Group_27">
<path id="Vector_10" d="M34.234 35.1776H35.1404V36.4614H34.8081L34.7728 36.196C34.6985 36.3043 34.6029 36.3828 34.4858 36.4289C34.3712 36.4722 34.2441 36.4939 34.1031 36.4939C33.884 36.4939 33.6926 36.4451 33.529 36.3476C33.3678 36.2501 33.2432 36.112 33.1563 35.9305C33.0682 35.7464 33.0254 35.5283 33.0254 35.2751C33.0254 35.0151 33.0732 34.7876 33.1714 34.5926C33.2721 34.3948 33.4144 34.2391 33.5995 34.1267C33.7833 34.0156 33.9998 33.9588 34.2491 33.9588C34.4505 33.9588 34.623 34.0008 34.7678 34.0834C34.9113 34.1633 35.0309 34.2838 35.1253 34.4463L34.803 34.7009C34.7451 34.5898 34.6671 34.5086 34.5664 34.4571C34.4682 34.403 34.3611 34.3759 34.2441 34.3759C34.0829 34.3759 33.9432 34.4138 33.8261 34.4896C33.7077 34.5628 33.6171 34.667 33.5542 34.8038C33.4899 34.9379 33.4585 35.0936 33.4585 35.2697C33.4585 35.5297 33.5189 35.7328 33.6398 35.8764C33.7631 36.0172 33.9318 36.0876 34.1433 36.0876C34.2441 36.0876 34.3397 36.0687 34.4304 36.028C34.521 35.9888 34.594 35.9305 34.652 35.8547C34.7086 35.7762 34.7376 35.68 34.7376 35.5676V35.5459H34.234V35.1776Z" fill="white"/>
</g>
</g>
</g>
<g id="Group_28">
<g id="Group_29">
<g id="Group_30">
<path id="Vector_11" d="M37.7334 36.4613L38.7103 33.9966H39.0629L40.0046 36.4613H39.5765L39.37 35.898H38.3729L38.1564 36.4613H37.7334ZM38.514 35.5188H39.2341L38.8816 34.5492L38.514 35.5188Z" fill="white"/>
</g>
</g>
</g>
<g id="Group_31">
<g id="Group_32">
<g id="Group_33">
<path id="Vector_12" d="M42.6748 36.4614V33.9967H43.4352C43.7273 33.9967 43.9501 34.0549 44.105 34.17C44.2623 34.2824 44.3417 34.449 44.3417 34.6684C44.3417 34.7876 44.314 34.8946 44.2611 34.988C44.207 35.0828 44.1302 35.1559 44.0294 35.2101C44.1327 35.2534 44.217 35.3239 44.2812 35.4214C44.3442 35.5189 44.3769 35.6313 44.3769 35.7572C44.3769 35.9712 44.3014 36.1418 44.1503 36.2718C44.0017 36.3991 43.7991 36.4614 43.541 36.4614H42.6748ZM43.4402 34.3651H43.0827V35.0368H43.4352C43.5989 35.0368 43.7197 35.0097 43.7978 34.9555C43.8784 34.8986 43.9187 34.8092 43.9187 34.6901C43.9187 34.579 43.8796 34.4978 43.8028 34.4463C43.7286 34.3921 43.6077 34.3651 43.4402 34.3651ZM43.0827 36.0931H43.5309C43.6618 36.0931 43.7651 36.066 43.8431 36.0118C43.9199 35.9549 43.9589 35.8655 43.9589 35.7464C43.9589 35.5229 43.8129 35.4105 43.5208 35.4105H43.0827V36.0931Z" fill="white"/>
</g>
</g>
</g>
<g id="Group_34">
<g id="Group_35">
<g id="Group_36">
<path id="Vector_13" d="M47.1729 36.4614V33.9967H47.9333C48.2253 33.9967 48.4482 34.0549 48.603 34.17C48.7604 34.2824 48.8397 34.449 48.8397 34.6684C48.8397 34.7875 48.812 34.8945 48.7591 34.988C48.705 35.0828 48.6282 35.1559 48.5275 35.2101C48.6307 35.2534 48.7151 35.3238 48.7793 35.4213C48.8422 35.5188 48.875 35.6312 48.875 35.7572C48.875 35.9711 48.7994 36.1418 48.6483 36.2718C48.4998 36.3991 48.2971 36.4614 48.039 36.4614H47.1729ZM47.9383 34.365H47.5808V35.0367H47.9333C48.0969 35.0367 48.2178 35.0096 48.2958 34.9555C48.3764 34.8986 48.4167 34.8092 48.4167 34.69C48.4167 34.579 48.3777 34.4977 48.3009 34.4463C48.2266 34.3921 48.1057 34.365 47.9383 34.365ZM47.5808 36.093H48.0289C48.1599 36.093 48.2631 36.0659 48.3412 36.0118C48.418 35.9549 48.457 35.8655 48.457 35.7463C48.457 35.5229 48.3109 35.4105 48.0189 35.4105H47.5808V36.093Z" fill="white"/>
</g>
</g>
</g>
<g id="Group_37">
<g id="Group_38">
<g id="Group_39">
<path id="Vector_14" d="M51.4053 36.4614L52.3822 33.9967H52.7347L53.6764 36.4614H53.2484L53.0419 35.898H52.0448L51.8283 36.4614H51.4053ZM52.1858 35.5188H52.9059L52.5534 34.5492L52.1858 35.5188Z" fill="white"/>
</g>
</g>
</g>
<g id="Group_40">
<g id="Group_41">
<g id="Group_42">
<path id="Vector_15" d="M57.0572 36.4939C56.7878 36.4939 56.5788 36.4289 56.4277 36.2989C56.2792 36.1688 56.1936 35.9793 56.1709 35.7301L56.5637 35.6651C56.604 35.9616 56.7752 36.1093 57.0773 36.1093C57.2083 36.1093 57.3103 36.0822 57.3845 36.028C57.4576 35.9711 57.4953 35.8912 57.4953 35.7897C57.4953 35.6962 57.4576 35.6258 57.3845 35.5784C57.3103 35.5324 57.1932 35.4863 57.032 35.443C56.8809 35.4037 56.7513 35.3563 56.6443 35.3021C56.536 35.248 56.4542 35.1762 56.3975 35.0855C56.3396 34.992 56.3119 34.8688 56.3119 34.7171C56.3119 34.5695 56.3472 34.4395 56.4177 34.3271C56.4882 34.212 56.5838 34.1212 56.7047 34.0562C56.8281 33.9912 56.9716 33.9587 57.1327 33.9587C57.3468 33.9587 57.5218 34.021 57.6565 34.1429C57.7899 34.2621 57.8692 34.4273 57.8932 34.6359L57.5255 34.7063C57.4815 34.4652 57.3442 34.3433 57.1126 34.3433C57.0018 34.3433 56.9112 34.3758 56.8407 34.4408C56.7702 34.5031 56.7349 34.5844 56.7349 34.6846C56.7349 34.7862 56.7676 34.8634 56.8356 34.9175C56.9061 34.9717 57.0245 35.0205 57.1932 35.0638C57.3405 35.1004 57.4676 35.1437 57.5759 35.1938C57.6829 35.2412 57.7647 35.3103 57.8226 35.3996C57.8831 35.4863 57.9133 35.6082 57.9133 35.7626C57.9133 35.9034 57.8755 36.0307 57.8025 36.1418C57.732 36.2501 57.6325 36.3368 57.5054 36.4018C57.377 36.4627 57.2284 36.4939 57.0572 36.4939Z" fill="white"/>
</g>
</g>
</g>
<g id="Group_43">
<g id="Group_44">
<g id="Group_45">
<path id="Vector_16" d="M61.4049 36.4939C61.1354 36.4939 60.9265 36.4289 60.7754 36.2989C60.6268 36.1688 60.5412 35.9793 60.5186 35.7301L60.9113 35.6651C60.9516 35.9616 61.1229 36.1093 61.425 36.1093C61.5559 36.1093 61.6579 36.0822 61.7322 36.028C61.8052 35.9711 61.843 35.8912 61.843 35.7897C61.843 35.6962 61.8052 35.6258 61.7322 35.5784C61.6579 35.5324 61.5408 35.4863 61.3797 35.443C61.2286 35.4037 61.0989 35.3563 60.9919 35.3021C60.8837 35.248 60.8018 35.1762 60.7452 35.0855C60.6873 34.992 60.6596 34.8688 60.6596 34.7171C60.6596 34.5695 60.6948 34.4395 60.7653 34.3271C60.8358 34.212 60.9315 34.1212 61.0524 34.0562C61.1757 33.9912 61.3193 33.9587 61.4804 33.9587C61.6944 33.9587 61.8694 34.021 62.0041 34.1429C62.1376 34.2621 62.2169 34.4273 62.2408 34.6359L61.8732 34.7063C61.8291 34.4652 61.6919 34.3433 61.4603 34.3433C61.3495 34.3433 61.2588 34.3758 61.1883 34.4408C61.1178 34.5031 61.0826 34.5844 61.0826 34.6846C61.0826 34.7862 61.1153 34.8634 61.1833 34.9175C61.2538 34.9717 61.3721 35.0205 61.5408 35.0638C61.6881 35.1004 61.8153 35.1437 61.9235 35.1938C62.0306 35.2412 62.1124 35.3103 62.1703 35.3996C62.2307 35.4863 62.2609 35.6082 62.2609 35.7626C62.2609 35.9034 62.2232 36.0307 62.1502 36.1418C62.0797 36.2501 61.9802 36.3368 61.853 36.4018C61.7246 36.4627 61.5761 36.4939 61.4049 36.4939Z" fill="white"/>
</g>
</g>
</g>
<g id="Group_46">
<g id="Group_47">
<g id="Group_48">
<path id="Vector_17" d="M66.0591 36.4939C65.8274 36.4939 65.6272 36.4478 65.4598 36.353C65.2949 36.2555 65.169 36.1174 65.0821 35.9359C64.994 35.7517 64.9512 35.5324 64.9512 35.2751C64.9512 35.0191 64.9978 34.7916 65.0922 34.5925C65.1853 34.3948 65.3188 34.2391 65.49 34.1267C65.6637 34.0156 65.8702 33.9587 66.1094 33.9587C66.3209 33.9587 66.5047 34.0116 66.6634 34.1158C66.8245 34.2174 66.9479 34.3596 67.036 34.5438C67.1229 34.7252 67.1669 34.9365 67.1669 35.1775C67.1669 35.4457 67.1178 35.6786 67.0209 35.8763C66.9265 36.0713 66.7955 36.223 66.6281 36.3314C66.4632 36.4397 66.2731 36.4939 66.0591 36.4939ZM66.049 36.0876C66.1824 36.0876 66.302 36.0524 66.4065 35.9793C66.5098 35.9075 66.5929 35.8046 66.6533 35.6705C66.7137 35.5378 66.7439 35.3726 66.7439 35.1775C66.7439 34.9324 66.6848 34.7361 66.5677 34.5871C66.4493 34.4395 66.2932 34.365 66.0993 34.365C65.9583 34.365 65.8337 34.4029 65.7267 34.4788C65.6184 34.5546 65.5328 34.6602 65.4699 34.7929C65.4057 34.927 65.3742 35.0841 65.3742 35.2642C65.3742 35.5283 65.4346 35.7328 65.5555 35.8763C65.6763 36.0172 65.84 36.0876 66.049 36.0876Z" fill="white"/>
</g>
</g>
</g>
<g id="Group_49">
<g id="Group_50">
<g id="Group_51">
<path id="Vector_18" d="M71.4568 33.9966H71.8748L71.0389 36.4613H70.4547L69.7598 33.9966H70.208L70.772 36.0822L71.4568 33.9966Z" fill="white"/>
</g>
</g>
</g>
<g id="Group_52">
<g id="Group_53">
<g id="Group_54">
<path id="Vector_19" d="M74.2178 36.4614L75.1947 33.9967H75.5472L76.4889 36.4614H76.0609L75.8544 35.898H74.8573L74.6408 36.4614H74.2178ZM74.9983 35.5189H75.7184L75.3659 34.5492L74.9983 35.5189Z" fill="white"/>
</g>
</g>
</g>
</g>
</svg>
