<svg width="24" height="18" viewBox="0 0 24 18" fill="none" xmlns="http://www.w3.org/2000/svg">
<path d="M23.2188 5.94559C23.3991 5.80023 23.6672 5.93621 23.6672 6.16597V15.7549C23.6672 16.9975 22.6734 18.0056 21.4484 18.0056H2.2188C0.993838 18.0056 0 16.9975 0 15.7549V6.17066C0 5.93621 0.263483 5.80492 0.448383 5.95028C1.48382 6.76616 2.85671 7.80242 7.57166 11.2769C8.54701 11.999 10.1926 13.5182 11.8336 13.5089C13.4838 13.5229 15.1618 11.9709 16.1002 11.2769C20.8151 7.80242 22.1834 6.76147 23.2188 5.94559ZM11.8336 12.0037C12.906 12.0225 14.4499 10.6345 15.2265 10.0625C21.3606 5.54703 21.8275 5.15316 23.2419 4.02781C23.51 3.81681 23.6672 3.48858 23.6672 3.1416V2.2507C23.6672 1.00812 22.6734 0 21.4484 0H2.2188C0.993838 0 0 1.00812 0 2.2507V3.1416C0 3.48858 0.157165 3.81212 0.42527 4.02781C1.83976 5.14847 2.30663 5.54703 8.44069 10.0625C9.21727 10.6345 10.7612 12.0225 11.8336 12.0037Z" fill="white"/>
</svg>
