<svg width="114" height="122" viewBox="0 0 114 122" fill="none" xmlns="http://www.w3.org/2000/svg">
<path d="M10.8049 62.6387L8.70625 62.9692L10.1675 64.5131L9.46047 65.1229L8.13233 63.4547L7.52818 65.4997L6.64388 65.2001L7.41805 63.2204L5.34898 63.7025L5.17168 62.7932L7.2703 62.4626L5.80908 60.9188L6.51608 60.309L7.84422 61.9771L8.44837 59.9322L9.33268 60.2317L8.5585 62.2115L10.6276 61.7294L10.8049 62.6387Z" fill="white"/>
<path d="M15.1611 48.1021L5.73946 45.121L6.74675 41.9375C6.98062 41.1984 7.3052 40.6364 7.7205 40.2516C8.1337 39.8627 8.60162 39.6261 9.12427 39.5418C9.64692 39.4575 10.1858 39.5032 10.7409 39.6788C11.296 39.8545 11.7647 40.1276 12.1467 40.4982C12.5298 40.8657 12.7821 41.3267 12.9035 41.8814C13.0218 42.435 12.965 43.0784 12.7331 43.8114L12.0111 46.0932L10.999 45.773L11.7094 43.5279C11.8695 43.0219 11.9107 42.5879 11.8329 42.2259C11.7551 41.8639 11.5893 41.5668 11.3355 41.3346C11.0796 41.0985 10.763 40.9207 10.3858 40.8013C10.0085 40.682 9.64884 40.6458 9.30671 40.6927C8.96554 40.7366 8.66162 40.8867 8.39492 41.1431C8.12516 41.3985 7.90925 41.7823 7.7472 42.2945L7.11255 44.3003L15.5221 46.9612L15.1611 48.1021Z" fill="white"/>
<path d="M20.0882 35.9751L11.9767 30.3309L12.6602 29.3486L19.9004 34.3866L22.5241 30.616L23.3954 31.2223L20.0882 35.9751Z" fill="white"/>
<path d="M28.0646 26.2426L27.0666 27.0029L23.9648 16.943L24.9475 16.1945L33.8222 21.8567L32.8242 22.6169L25.4342 17.789L25.3728 17.8358L28.0646 26.2426ZM26.0939 22.8912L30.1165 19.8269L30.7598 20.6714L26.7372 23.7357L26.0939 22.8912Z" fill="white"/>
<path d="M35.4911 9.85353L36.7881 9.41114L40.8712 12.8923L40.9809 12.8549L42.0857 7.60422L43.3827 7.16184L41.8787 13.813L43.1933 17.6675L42.0608 18.0538L40.7461 14.1993L35.4911 9.85353Z" fill="white"/>
<path d="M63.2605 6.09912L64.4701 14.8366L64.5836 14.8598L69.1227 7.29653L70.3519 7.5476L64.8191 16.5035L63.6088 16.2563L62.0313 5.84805L63.2605 6.09912Z" fill="white"/>
<path d="M79.8023 11.4082L75.4029 20.2569L74.3314 19.7242L78.7308 10.8755L79.8023 11.4082Z" fill="white"/>
<path d="M83.3605 25.5771L81.0704 23.5634L87.596 16.1424L89.9875 18.2454C90.7074 18.8784 91.1928 19.5687 91.4436 20.3161C91.6966 21.0612 91.7163 21.8303 91.5028 22.6235C91.2915 23.4144 90.8481 24.1939 90.1726 24.962C89.4928 25.7351 88.7699 26.2795 88.0038 26.5954C87.2398 26.9088 86.4629 26.9837 85.6728 26.8202C84.8849 26.6543 84.1141 26.2399 83.3605 25.5771ZM82.67 23.5564L84.0035 24.729C84.6171 25.2685 85.2296 25.5973 85.8412 25.7153C86.4528 25.8333 87.0499 25.7608 87.6325 25.4978C88.215 25.2347 88.7719 24.8012 89.3029 24.1973C89.8297 23.5982 90.1854 22.9964 90.37 22.392C90.5567 21.7851 90.5575 21.1947 90.3725 20.6208C90.1896 20.0445 89.8083 19.5014 89.2286 18.9916L87.7937 17.7298L82.67 23.5564Z" fill="white"/>
<path d="M90.7763 33.6177L99.2643 28.5572L102.318 33.6798L101.407 34.2234L98.9653 30.1286L96.0973 31.8385L98.3805 35.6681L97.4687 36.2117L95.1855 32.3822L92.3009 34.102L94.7818 38.263L93.87 38.8067L90.7763 33.6177Z" fill="white"/>
<path d="M102.906 51.5677C101.888 51.7905 100.968 51.7991 100.146 51.5936C99.3239 51.3882 98.6416 51.0089 98.0992 50.4558C97.5567 49.9028 97.1954 49.2146 97.0153 48.3912C96.8352 47.5679 96.8762 46.7917 97.1382 46.0626C97.4002 45.3336 97.8618 44.7041 98.523 44.1742C99.1842 43.6443 100.024 43.268 101.042 43.0453C102.06 42.8226 102.98 42.8139 103.802 43.0194C104.624 43.2248 105.307 43.6041 105.849 44.1572C106.392 44.7103 106.753 45.3985 106.933 46.2218C107.113 47.0451 107.072 47.8213 106.81 48.5504C106.548 49.2795 106.087 49.9089 105.425 50.4388C104.764 50.9687 103.924 51.345 102.906 51.5677ZM102.659 50.4364C103.495 50.2536 104.17 49.9594 104.684 49.554C105.198 49.1516 105.551 48.6809 105.743 48.1418C105.935 47.6058 105.967 47.0455 105.839 46.461C105.712 45.8765 105.448 45.3793 105.049 44.9694C104.65 44.5626 104.133 44.2823 103.497 44.1284C102.861 43.9777 102.125 43.9937 101.29 44.1766C100.454 44.3594 99.7784 44.652 99.2638 45.0543C98.7499 45.4598 98.3968 45.9306 98.2045 46.4665C98.0129 47.0057 97.9811 47.5675 98.1089 48.152C98.2368 48.7365 98.4999 49.2321 98.8985 49.6389C99.2976 50.0488 99.815 50.3291 100.451 50.4799C101.087 50.6338 101.823 50.6193 102.659 50.4364Z" fill="white"/>
<path d="M100.971 61.4988L103.062 61.123L101.567 59.6111L102.261 58.9861L103.625 60.6252L104.185 58.5677L105.075 58.8481L104.344 60.8441L106.402 60.3174L106.599 61.2227L104.508 61.5985L106.002 63.1105L105.309 63.7354L103.945 62.0963L103.385 64.1538L102.494 63.8734L103.226 61.8774L101.167 62.4041L100.971 61.4988Z" fill="white"/>
<path d="M97.3958 74.17L106.88 76.947L105.941 80.1515C105.723 80.8955 105.411 81.4644 105.004 81.8581C104.599 82.2558 104.137 82.5024 103.616 82.598C103.095 82.6935 102.556 82.6595 101.997 82.4959C101.438 82.3323 100.964 82.0693 100.574 81.7071C100.183 81.3479 99.9206 80.8924 99.7872 80.3405C99.657 79.7896 99.6999 79.1451 99.9159 78.4073L100.588 76.1104L101.607 76.4088L100.946 78.6686C100.796 79.178 100.765 79.6128 100.85 79.973C100.936 80.3333 101.108 80.6267 101.367 80.8533C101.628 81.0839 101.948 81.2548 102.328 81.366C102.707 81.4772 103.068 81.5056 103.409 81.4513C103.749 81.4 104.05 81.2434 104.311 80.9813C104.575 80.7201 104.782 80.3317 104.933 79.8162L105.525 77.7972L97.0596 75.3185L97.3958 74.17Z" fill="white"/>
<path d="M92.7311 86.4014L100.963 91.8692L100.3 92.866L92.9533 87.9855L90.4116 91.8119L89.5273 91.2245L92.7311 86.4014Z" fill="white"/>
<path d="M84.9677 96.3038L85.949 95.5222L89.2672 105.513L88.301 106.282L79.3061 100.813L80.2875 100.031L87.7799 104.699L87.8403 104.651L84.9677 96.3038ZM87.0102 99.6119L83.0547 102.762L82.3933 101.932L86.3489 98.7815L87.0102 99.6119Z" fill="white"/>
<path d="M77.8939 112.85L76.6068 113.32L72.4495 109.928L72.3407 109.968L71.3495 115.241L70.0623 115.711L71.4224 109.029L70.0248 105.204L71.1488 104.793L72.5464 108.618L77.8939 112.85Z" fill="white"/>
<path d="M50.2154 117.202L48.8175 108.493L48.7035 108.472L44.3287 116.132L43.0944 115.907L48.4326 106.834L49.6479 107.055L51.4497 117.427L50.2154 117.202Z" fill="white"/>
<path d="M33.5616 112.252L37.7689 103.31L38.8517 103.819L34.6444 112.761L33.5616 112.252Z" fill="white"/>
<path d="M29.6959 98.1628L32.0289 100.127L25.665 107.687L23.2286 105.636C22.4952 105.019 21.9951 104.339 21.7282 103.597C21.4592 102.858 21.4228 102.089 21.6191 101.292C21.8134 100.496 22.2398 99.7074 22.8986 98.9248C23.5615 98.1373 24.2725 97.5774 25.0316 97.2451C25.7886 96.9152 26.5638 96.8235 27.3572 96.97C28.1485 97.1189 28.928 97.5165 29.6959 98.1628ZM30.4298 100.168L29.0713 99.0247C28.4462 98.4985 27.8267 98.183 27.2127 98.0782C26.5987 97.9734 26.0033 98.0588 25.4265 98.3344C24.8498 98.61 24.3025 99.0554 23.7846 99.6706C23.2708 100.281 22.9282 100.89 22.7567 101.499C22.5832 102.109 22.5951 102.7 22.7924 103.269C22.9877 103.842 23.3806 104.376 23.9713 104.874L25.4331 106.104L30.4298 100.168Z" fill="white"/>
<path d="M22.1119 90.2842L13.7352 95.5268L10.5712 90.4713L11.471 89.9081L14.0002 93.9493L16.8306 92.1778L14.4653 88.3985L15.3651 87.8353L17.7305 91.6146L20.5772 89.833L18.0071 85.7264L18.907 85.1632L22.1119 90.2842Z" fill="white"/>
<path d="M9.597 72.6008C10.6101 72.3562 11.5298 72.3277 12.3561 72.5154C13.1824 72.703 13.8727 73.0675 14.427 73.6087C14.9813 74.1499 15.3574 74.8302 15.5552 75.6495C15.753 76.4687 15.7288 77.2456 15.4826 77.9802C15.2364 78.7147 14.7885 79.354 14.1389 79.898C13.4893 80.4421 12.6579 80.8364 11.6448 81.0811C10.6316 81.3257 9.71193 81.3542 8.88563 81.1666C8.05933 80.9789 7.36904 80.6145 6.81475 80.0732C6.26047 79.532 5.88442 78.8517 5.68658 78.0325C5.48876 77.2132 5.51295 76.4363 5.75916 75.7018C6.00537 74.9672 6.45328 74.3279 7.10289 73.7839C7.7525 73.2398 8.58387 72.8455 9.597 72.6008ZM9.86883 73.7265C9.03706 73.9274 8.36867 74.2361 7.86364 74.6525C7.35786 75.0659 7.01501 75.5441 6.8351 76.0873C6.65443 76.6273 6.63431 77.1881 6.77476 77.7697C6.9152 78.3513 7.1894 78.8427 7.59735 79.2439C8.00454 79.642 8.52785 79.9111 9.16728 80.0512C9.80596 80.1882 10.5412 80.1562 11.3729 79.9554C12.2047 79.7545 12.8735 79.4474 13.3793 79.0341C13.8843 78.6176 14.2271 78.1394 14.4078 77.5993C14.5877 77.0562 14.6075 76.4938 14.467 75.9122C14.3266 75.3306 14.0527 74.8408 13.6456 74.4427C13.2376 74.0415 12.7143 73.7724 12.0756 73.6354C11.4362 73.4953 10.7006 73.5257 9.86883 73.7265Z" fill="white"/>
<path d="M49.8214 83H40.6071C38.0636 83 36 81.0324 36 78.6071V46.3929C36 43.9676 38.0636 42 40.6071 42H49.8214C52.365 42 54.4286 43.9676 54.4286 46.3929V78.6071C54.4286 81.0324 52.365 83 49.8214 83ZM79 78.6071V46.3929C79 43.9676 76.9364 42 74.3929 42H65.1786C62.635 42 60.5714 43.9676 60.5714 46.3929V78.6071C60.5714 81.0324 62.635 83 65.1786 83H74.3929C76.9364 83 79 81.0324 79 78.6071Z" fill="white"/>
</svg>
