<svg width="114" height="122" viewBox="0 0 114 122" fill="none" xmlns="http://www.w3.org/2000/svg">
<path d="M10.8046 62.6387L8.70601 62.9692L10.1672 64.5131L9.46023 65.1229L8.13209 63.4547L7.52793 65.4997L6.64363 65.2001L7.41781 63.2204L5.34873 63.7025L5.17143 62.7932L7.27006 62.4626L5.80883 60.9188L6.51583 60.309L7.84397 61.9771L8.44813 59.9322L9.33243 60.2317L8.55825 62.2115L10.6273 61.7294L10.8046 62.6387Z" fill="white"/>
<path d="M15.1609 48.1021L5.73922 45.121L6.7465 41.9375C6.98037 41.1984 7.30495 40.6364 7.72025 40.2516C8.13345 39.8627 8.60138 39.6261 9.12403 39.5418C9.64668 39.4575 10.1856 39.5032 10.7407 39.6788C11.2958 39.8545 11.7644 40.1276 12.1465 40.4982C12.5296 40.8657 12.7818 41.3267 12.9032 41.8814C13.0216 42.435 12.9648 43.0784 12.7329 43.8114L12.0109 46.0932L10.9988 45.773L11.7091 43.5279C11.8693 43.0219 11.9104 42.5879 11.8326 42.2259C11.7549 41.8639 11.5891 41.5668 11.3352 41.3346C11.0793 41.0985 10.7627 40.9207 10.3855 40.8013C10.0083 40.682 9.64859 40.6458 9.30646 40.6927C8.9653 40.7366 8.66137 40.8867 8.39468 41.1431C8.12492 41.3985 7.90901 41.7823 7.74695 42.2945L7.1123 44.3003L15.5219 46.9612L15.1609 48.1021Z" fill="white"/>
<path d="M20.088 35.9751L11.9765 30.3309L12.66 29.3486L19.9001 34.3866L22.5238 30.616L23.3952 31.2223L20.088 35.9751Z" fill="white"/>
<path d="M28.0643 26.2426L27.0664 27.0029L23.9646 16.943L24.9472 16.1945L33.8219 21.8567L32.8239 22.6169L25.434 17.789L25.3726 17.8358L28.0643 26.2426ZM26.0937 22.8912L30.1163 19.8269L30.7596 20.6714L26.7369 23.7357L26.0937 22.8912Z" fill="white"/>
<path d="M35.4909 9.85353L36.7879 9.41114L40.871 12.8923L40.9806 12.8549L42.0854 7.60422L43.3824 7.16184L41.8784 13.813L43.1931 17.6675L42.0605 18.0538L40.7458 14.1993L35.4909 9.85353Z" fill="white"/>
<path d="M63.2603 6.09912L64.4699 14.8366L64.5833 14.8598L69.1225 7.29653L70.3517 7.5476L64.8189 16.5035L63.6086 16.2563L62.0311 5.84805L63.2603 6.09912Z" fill="white"/>
<path d="M79.8021 11.4082L75.4027 20.2569L74.3312 19.7242L78.7306 10.8755L79.8021 11.4082Z" fill="white"/>
<path d="M83.3602 25.5771L81.0701 23.5634L87.5958 16.1424L89.9873 18.2454C90.7072 18.8784 91.1925 19.5687 91.4434 20.3161C91.6963 21.0612 91.7161 21.8303 91.5026 22.6235C91.2913 23.4144 90.8478 24.1939 90.1723 24.962C89.4926 25.7351 88.7696 26.2795 88.0036 26.5954C87.2396 26.9088 86.4626 26.9837 85.6726 26.8202C84.8847 26.6543 84.1139 26.2399 83.3602 25.5771ZM82.6698 23.5564L84.0032 24.729C84.6168 25.2685 85.2294 25.5973 85.841 25.7153C86.4526 25.8333 87.0497 25.7608 87.6322 25.4978C88.2148 25.2347 88.7716 24.8012 89.3027 24.1973C89.8295 23.5982 90.1852 22.9964 90.3697 22.392C90.5564 21.7851 90.5573 21.1947 90.3723 20.6208C90.1894 20.0445 89.8081 19.5014 89.2283 18.9916L87.7934 17.7298L82.6698 23.5564Z" fill="white"/>
<path d="M90.7761 33.6177L99.264 28.5572L102.318 33.6798L101.406 34.2234L98.9651 30.1286L96.0971 31.8385L98.3802 35.6681L97.4685 36.2117L95.1853 32.3822L92.3007 34.102L94.7816 38.263L93.8698 38.8067L90.7761 33.6177Z" fill="white"/>
<path d="M102.906 51.5677C101.888 51.7905 100.968 51.7991 100.146 51.5936C99.3237 51.3882 98.6414 51.0089 98.0989 50.4558C97.5565 49.9028 97.1952 49.2146 97.0151 48.3912C96.835 47.5679 96.8759 46.7917 97.1379 46.0626C97.4 45.3336 97.8616 44.7041 98.5228 44.1742C99.184 43.6443 100.024 43.268 101.042 43.0453C102.06 42.8226 102.98 42.8139 103.802 43.0194C104.624 43.2248 105.307 43.6041 105.849 44.1572C106.391 44.7103 106.753 45.3985 106.933 46.2218C107.113 47.0451 107.072 47.8213 106.81 48.5504C106.548 49.2795 106.086 49.9089 105.425 50.4388C104.764 50.9687 103.924 51.345 102.906 51.5677ZM102.659 50.4364C103.495 50.2536 104.169 49.9594 104.683 49.554C105.198 49.1516 105.551 48.6809 105.743 48.1418C105.935 47.6058 105.967 47.0455 105.839 46.461C105.711 45.8765 105.448 45.3793 105.049 44.9694C104.65 44.5626 104.133 44.2823 103.497 44.1284C102.861 43.9777 102.125 43.9937 101.289 44.1766C100.453 44.3594 99.7782 44.652 99.2636 45.0543C98.7497 45.4598 98.3966 45.9306 98.2043 46.4665C98.0127 47.0057 97.9808 47.5675 98.1087 48.152C98.2365 48.7365 98.4997 49.2321 98.8982 49.6389C99.2974 50.0488 99.8148 50.3291 100.45 50.4799C101.087 50.6338 101.823 50.6193 102.659 50.4364Z" fill="white"/>
<path d="M100.97 61.4988L103.061 61.123L101.567 59.6111L102.261 58.9861L103.625 60.6252L104.184 58.5677L105.075 58.8481L104.344 60.8441L106.402 60.3174L106.599 61.2227L104.508 61.5985L106.002 63.1105L105.308 63.7354L103.945 62.0963L103.385 64.1538L102.494 63.8734L103.225 61.8774L101.167 62.4041L100.97 61.4988Z" fill="white"/>
<path d="M97.3956 74.17L106.879 76.947L105.941 80.1515C105.723 80.8955 105.411 81.4644 105.004 81.8581C104.599 82.2558 104.137 82.5024 103.616 82.598C103.095 82.6935 102.555 82.6595 101.997 82.4959C101.438 82.3323 100.963 82.0693 100.573 81.7071C100.183 81.3479 99.9204 80.8924 99.787 80.3405C99.6567 79.7896 99.6996 79.1451 99.9157 78.4073L100.588 76.1104L101.607 76.4088L100.945 78.6686C100.796 79.178 100.764 79.6128 100.85 79.973C100.935 80.3333 101.108 80.6267 101.366 80.8533C101.627 81.0839 101.948 81.2548 102.327 81.366C102.707 81.4772 103.068 81.5056 103.409 81.4513C103.749 81.4 104.049 81.2434 104.31 80.9813C104.575 80.7201 104.782 80.3317 104.933 79.8162L105.524 77.7972L97.0593 75.3185L97.3956 74.17Z" fill="white"/>
<path d="M92.7309 86.4014L100.962 91.8692L100.3 92.866L92.953 87.9855L90.4113 91.8119L89.5271 91.2245L92.7309 86.4014Z" fill="white"/>
<path d="M84.9674 96.3038L85.9488 95.5222L89.267 105.513L88.3008 106.282L79.3059 100.813L80.2872 100.031L87.7797 104.699L87.8401 104.651L84.9674 96.3038ZM87.01 99.6119L83.0545 102.762L82.3931 101.932L86.3486 98.7815L87.01 99.6119Z" fill="white"/>
<path d="M77.8937 112.85L76.6066 113.32L72.4492 109.928L72.3405 109.968L71.3492 115.241L70.0621 115.711L71.4222 109.029L70.0246 105.204L71.1486 104.793L72.5462 108.618L77.8937 112.85Z" fill="white"/>
<path d="M50.2152 117.202L48.8172 108.493L48.7033 108.472L44.3285 116.132L43.0942 115.907L48.4323 106.834L49.6477 107.055L51.4495 117.427L50.2152 117.202Z" fill="white"/>
<path d="M33.5614 112.252L37.7687 103.31L38.8515 103.819L34.6441 112.761L33.5614 112.252Z" fill="white"/>
<path d="M29.6956 98.1628L32.0286 100.127L25.6647 107.687L23.2284 105.636C22.495 105.019 21.9948 104.339 21.7279 103.597C21.4589 102.858 21.4226 102.089 21.6189 101.292C21.8131 100.496 22.2396 99.7074 22.8984 98.9248C23.5613 98.1373 24.2723 97.5774 25.0314 97.2451C25.7884 96.9152 26.5636 96.8235 27.3569 96.97C28.1482 97.1189 28.9278 97.5165 29.6956 98.1628ZM30.4295 100.168L29.0711 99.0247C28.446 98.4985 27.8264 98.183 27.2124 98.0782C26.5984 97.9734 26.0031 98.0588 25.4263 98.3344C24.8495 98.61 24.3022 99.0554 23.7843 99.6706C23.2706 100.281 22.928 100.89 22.7565 101.499C22.5829 102.109 22.5948 102.7 22.7922 103.269C22.9874 103.842 23.3804 104.376 23.971 104.874L25.4329 106.104L30.4295 100.168Z" fill="white"/>
<path d="M22.1117 90.2842L13.735 95.5268L10.571 90.4713L11.4708 89.9081L14 93.9493L16.8304 92.1778L14.465 88.3985L15.3649 87.8353L17.7302 91.6146L20.577 89.833L18.0069 85.7264L18.9067 85.1632L22.1117 90.2842Z" fill="white"/>
<path d="M9.59676 72.6008C10.6099 72.3562 11.5296 72.3277 12.3559 72.5154C13.1822 72.703 13.8725 73.0675 14.4268 73.6087C14.9811 74.1499 15.3571 74.8302 15.5549 75.6495C15.7528 76.4687 15.7286 77.2456 15.4824 77.9802C15.2362 78.7147 14.7882 79.354 14.1386 79.898C13.489 80.4421 12.6576 80.8364 11.6445 81.0811C10.6314 81.3257 9.71168 81.3542 8.88538 81.1666C8.05908 80.9789 7.36879 80.6145 6.81451 80.0732C6.26023 79.532 5.88417 78.8517 5.68634 78.0325C5.48851 77.2132 5.5127 76.4363 5.75891 75.7018C6.00513 74.9672 6.45304 74.3279 7.10265 73.7839C7.75226 73.2398 8.58363 72.8455 9.59676 72.6008ZM9.86858 73.7265C9.03682 73.9274 8.36842 74.2361 7.8634 74.6525C7.35762 75.0659 7.01477 75.5441 6.83485 76.0873C6.65418 76.6273 6.63407 77.1881 6.77451 77.7697C6.91496 78.3513 7.18915 78.8427 7.5971 79.2439C8.00429 79.642 8.52761 79.9111 9.16704 80.0512C9.80571 80.1882 10.5409 80.1562 11.3727 79.9554C12.2045 79.7545 12.8732 79.4474 13.379 79.0341C13.884 78.6176 14.2269 78.1394 14.4076 77.5993C14.5875 77.0562 14.6072 76.4938 14.4668 75.9122C14.3263 75.3306 14.0525 74.8408 13.6453 74.4427C13.2374 74.0415 12.714 73.7724 12.0754 73.6354C11.4359 73.4953 10.7003 73.5257 9.86858 73.7265Z" fill="white"/>
<path d="M77.2171 58.3467C79.2659 59.5748 79.2462 62.5505 77.1815 63.7516L47.9319 80.7658C45.8316 81.9875 43.1993 80.4619 43.2153 78.0321L43.4421 43.6197C43.4581 41.1899 46.1103 39.6991 48.1943 40.9485L77.2171 58.3467Z" fill="white"/>
</svg>
