<svg width="313" height="187" viewBox="0 0 313 187" fill="none" xmlns="http://www.w3.org/2000/svg">
<g filter="url(#filter0_b_304_2)">
<path d="M257.85 44.5233C258.587 43.2452 259.951 42.4579 261.427 42.4579L285.573 42.4579C287.049 42.4579 288.413 43.2452 289.15 44.5233L301.224 65.4345C301.961 66.7126 301.961 68.2872 301.224 69.5653L289.15 90.4765C288.413 91.7546 287.049 92.5419 285.573 92.5419L261.427 92.5419C259.951 92.5419 258.587 91.7546 257.85 90.4765L245.776 69.5653C245.039 68.2872 245.039 66.7126 245.776 65.4345L257.85 44.5233Z" fill="url(#paint0_radial_304_2)" fill-opacity="0.2"/>
<path d="M257.999 44.6094C258.706 43.3845 260.013 42.63 261.427 42.63L285.573 42.63C286.987 42.63 288.294 43.3845 289.001 44.6094L301.074 65.5205C301.782 66.7454 301.782 68.2544 301.074 69.4792L289.001 90.3904C288.294 91.6152 286.987 92.3698 285.573 92.3698L261.427 92.3698C260.013 92.3698 258.706 91.6152 257.999 90.3904L245.926 69.4792C245.218 68.2544 245.218 66.7454 245.926 65.5205L257.999 44.6094Z" stroke="#7391FF" stroke-width="0.344235"/>
</g>
<path d="M258.554 66.1449H257.491C257.461 65.9706 257.405 65.8163 257.324 65.6818C257.242 65.5455 257.141 65.4299 257.02 65.3352C256.899 65.2405 256.76 65.1695 256.605 65.1222C256.452 65.0729 256.286 65.0483 256.108 65.0483C255.792 65.0483 255.511 65.1278 255.267 65.2869C255.023 65.4441 254.831 65.6752 254.693 65.9801C254.555 66.2831 254.486 66.6534 254.486 67.0909C254.486 67.536 254.555 67.911 254.693 68.2159C254.833 68.5189 255.025 68.7481 255.267 68.9034C255.511 69.0568 255.791 69.1335 256.105 69.1335C256.279 69.1335 256.442 69.1108 256.594 69.0653C256.747 69.018 256.884 68.9489 257.006 68.858C257.129 68.767 257.232 68.6553 257.315 68.5227C257.401 68.3902 257.459 68.2386 257.491 68.0682L258.554 68.0739C258.514 68.3504 258.428 68.6098 258.295 68.8523C258.165 69.0947 257.993 69.3087 257.781 69.4943C257.569 69.678 257.321 69.822 257.037 69.9261C256.753 70.0284 256.438 70.0795 256.091 70.0795C255.58 70.0795 255.123 69.9612 254.722 69.7244C254.32 69.4877 254.004 69.1458 253.773 68.6989C253.542 68.2519 253.426 67.7159 253.426 67.0909C253.426 66.464 253.543 65.928 253.776 65.483C254.009 65.036 254.326 64.6941 254.727 64.4574C255.129 64.2206 255.583 64.1023 256.091 64.1023C256.415 64.1023 256.716 64.1477 256.994 64.2386C257.273 64.3295 257.521 64.4631 257.739 64.6392C257.956 64.8134 258.135 65.0275 258.276 65.2812C258.418 65.5331 258.51 65.821 258.554 66.1449ZM259.474 70V65.6364H260.502V70H259.474ZM259.991 65.017C259.828 65.017 259.688 64.9631 259.57 64.8551C259.453 64.7453 259.394 64.6136 259.394 64.4602C259.394 64.3049 259.453 64.1733 259.57 64.0653C259.688 63.9555 259.828 63.9006 259.991 63.9006C260.156 63.9006 260.296 63.9555 260.411 64.0653C260.529 64.1733 260.587 64.3049 260.587 64.4602C260.587 64.6136 260.529 64.7453 260.411 64.8551C260.296 64.9631 260.156 65.017 259.991 65.017ZM262.588 67.4432V70H261.56V65.6364H262.543V66.3778H262.594C262.694 66.1335 262.854 65.9394 263.074 65.7955C263.295 65.6515 263.569 65.5795 263.895 65.5795C264.196 65.5795 264.458 65.6439 264.682 65.7727C264.907 65.9015 265.081 66.0881 265.205 66.3324C265.33 66.5767 265.391 66.8731 265.389 67.2216V70H264.361V67.3807C264.361 67.089 264.285 66.8608 264.134 66.696C263.984 66.5312 263.777 66.4489 263.511 66.4489C263.331 66.4489 263.171 66.4886 263.031 66.5682C262.893 66.6458 262.784 66.7585 262.705 66.9062C262.627 67.054 262.588 67.233 262.588 67.4432ZM268.366 70.0852C267.929 70.0852 267.551 69.9943 267.233 69.8125C266.917 69.6288 266.673 69.3693 266.503 69.0341C266.332 68.697 266.247 68.3002 266.247 67.8438C266.247 67.3949 266.332 67.0009 266.503 66.6619C266.675 66.321 266.916 66.0559 267.224 65.8665C267.533 65.6752 267.896 65.5795 268.312 65.5795C268.581 65.5795 268.835 65.6231 269.074 65.7102C269.314 65.7955 269.527 65.928 269.71 66.108C269.896 66.2879 270.042 66.517 270.148 66.7955C270.254 67.072 270.307 67.4015 270.307 67.7841V68.0994H266.73V67.4062H269.321C269.319 67.2093 269.277 67.0341 269.193 66.8807C269.11 66.7254 268.993 66.6032 268.844 66.5142C268.696 66.4252 268.524 66.3807 268.327 66.3807C268.116 66.3807 267.932 66.4318 267.773 66.5341C267.614 66.6345 267.49 66.767 267.401 66.9318C267.313 67.0947 267.269 67.2737 267.267 67.4688V68.0739C267.267 68.3277 267.313 68.5455 267.406 68.7273C267.499 68.9072 267.629 69.0455 267.795 69.142C267.962 69.2367 268.157 69.2841 268.381 69.2841C268.53 69.2841 268.666 69.2633 268.787 69.2216C268.908 69.178 269.013 69.1146 269.102 69.0312C269.191 68.9479 269.259 68.8447 269.304 68.7216L270.264 68.8295C270.204 69.0833 270.088 69.3049 269.918 69.4943C269.749 69.6818 269.533 69.8277 269.27 69.9318C269.007 70.0341 268.705 70.0852 268.366 70.0852ZM271.177 70V65.6364H272.16V66.3778H272.211C272.302 66.1278 272.452 65.9328 272.663 65.7926C272.873 65.6506 273.124 65.5795 273.415 65.5795C273.711 65.5795 273.96 65.6515 274.163 65.7955C274.367 65.9375 274.511 66.1316 274.594 66.3778H274.64C274.737 66.1354 274.899 65.9422 275.129 65.7983C275.36 65.6525 275.633 65.5795 275.95 65.5795C276.351 65.5795 276.679 65.7064 276.933 65.9602C277.186 66.214 277.313 66.5843 277.313 67.071V70H276.282V67.2301C276.282 66.9593 276.21 66.7614 276.066 66.6364C275.922 66.5095 275.746 66.446 275.538 66.446C275.29 66.446 275.095 66.5237 274.955 66.679C274.817 66.8324 274.748 67.0322 274.748 67.2784V70H273.739V67.1875C273.739 66.9621 273.671 66.7822 273.535 66.6477C273.4 66.5133 273.224 66.446 273.006 66.446C272.859 66.446 272.724 66.4839 272.603 66.5597C272.482 66.6335 272.385 66.7386 272.313 66.875C272.241 67.0095 272.205 67.1667 272.205 67.3466V70H271.177ZM279.612 70.0881C279.336 70.0881 279.087 70.0388 278.865 69.9403C278.645 69.84 278.471 69.6922 278.342 69.4972C278.215 69.3021 278.152 69.0616 278.152 68.7756C278.152 68.5294 278.197 68.3258 278.288 68.1648C278.379 68.0038 278.503 67.875 278.661 67.7784C278.818 67.6818 278.995 67.6089 279.192 67.5597C279.391 67.5085 279.596 67.4716 279.808 67.4489C280.064 67.4223 280.271 67.3987 280.43 67.3778C280.589 67.3551 280.705 67.321 280.777 67.2756C280.851 67.2282 280.888 67.1553 280.888 67.0568V67.0398C280.888 66.8258 280.824 66.66 280.697 66.5426C280.571 66.4252 280.388 66.3665 280.149 66.3665C279.897 66.3665 279.697 66.4214 279.55 66.5312C279.404 66.6411 279.305 66.7708 279.254 66.9205L278.294 66.7841C278.37 66.5189 278.495 66.2973 278.669 66.1193C278.843 65.9394 279.056 65.8049 279.308 65.7159C279.56 65.625 279.839 65.5795 280.143 65.5795C280.354 65.5795 280.563 65.6042 280.771 65.6534C280.98 65.7027 281.17 65.7841 281.342 65.8977C281.515 66.0095 281.653 66.1619 281.757 66.3551C281.863 66.5483 281.916 66.7898 281.916 67.0795V70H280.928V69.4006H280.893C280.831 69.5218 280.743 69.6354 280.629 69.7415C280.518 69.8456 280.376 69.9299 280.206 69.9943C280.037 70.0568 279.839 70.0881 279.612 70.0881ZM279.879 69.3324C280.086 69.3324 280.265 69.2917 280.416 69.2102C280.568 69.1269 280.684 69.017 280.766 68.8807C280.849 68.7443 280.891 68.5956 280.891 68.4347V67.9205C280.858 67.947 280.804 67.9716 280.726 67.9943C280.65 68.017 280.565 68.0369 280.47 68.054C280.375 68.071 280.282 68.0862 280.189 68.0994C280.096 68.1127 280.016 68.1241 279.947 68.1335C279.794 68.1544 279.657 68.1884 279.536 68.2358C279.414 68.2831 279.319 68.3494 279.249 68.4347C279.179 68.518 279.143 68.6259 279.143 68.7585C279.143 68.9479 279.213 69.0909 279.351 69.1875C279.489 69.2841 279.665 69.3324 279.879 69.3324ZM284.818 68.9205V68.0824L287.287 64.1818H287.986V65.375H287.56L285.898 68.0085V68.054H289.344V68.9205H284.818ZM287.594 70V68.6648L287.605 68.2898V64.1818H288.599V70H287.594ZM292.28 70H290.308V64.1818H292.32C292.897 64.1818 293.393 64.2983 293.808 64.5312C294.225 64.7623 294.545 65.0947 294.768 65.5284C294.992 65.9621 295.104 66.4811 295.104 67.0852C295.104 67.6913 294.991 68.2121 294.766 68.6477C294.542 69.0833 294.219 69.4176 293.797 69.6506C293.376 69.8835 292.871 70 292.28 70ZM291.362 69.0881H292.229C292.634 69.0881 292.972 69.0142 293.243 68.8665C293.514 68.7169 293.717 68.4943 293.854 68.1989C293.99 67.9015 294.058 67.5303 294.058 67.0852C294.058 66.6402 293.99 66.2708 293.854 65.9773C293.717 65.6818 293.516 65.4612 293.249 65.3153C292.983 65.1676 292.654 65.0938 292.26 65.0938H291.362V69.0881Z" fill="white"/>
<g filter="url(#filter1_b_304_2)">
<path d="M117.85 70.5233C118.587 69.2452 119.951 68.4579 121.427 68.4579L145.573 68.4579C147.049 68.4579 148.413 69.2452 149.15 70.5233L161.224 91.4345C161.961 92.7126 161.961 94.2872 161.224 95.5653L149.15 116.476C148.413 117.755 147.049 118.542 145.573 118.542L121.427 118.542C119.951 118.542 118.587 117.755 117.85 116.476L105.776 95.5653C105.039 94.2872 105.039 92.7126 105.776 91.4345L117.85 70.5233Z" fill="url(#paint1_radial_304_2)" fill-opacity="0.2"/>
<path d="M117.999 70.6094C118.706 69.3845 120.013 68.63 121.427 68.63L145.573 68.63C146.987 68.63 148.294 69.3845 149.001 70.6094L161.074 91.5205C161.782 92.7454 161.782 94.2544 161.074 95.4792L149.001 116.39C148.294 117.615 146.987 118.37 145.573 118.37L121.427 118.37C120.013 118.37 118.706 117.615 117.999 116.39L105.926 95.4792C105.218 94.2544 105.218 92.7454 105.926 91.5205L117.999 70.6094Z" stroke="#7391FF" stroke-width="0.344235"/>
</g>
<path d="M113.69 89.7273L115.583 95.4517H115.658L117.547 89.7273H118.996L116.432 97H114.805L112.245 89.7273H113.69ZM123.906 91.7266C123.873 91.4164 123.733 91.175 123.487 91.0021C123.243 90.8293 122.926 90.7429 122.535 90.7429C122.261 90.7429 122.025 90.7843 121.829 90.8672C121.632 90.95 121.482 91.0625 121.378 91.2045C121.273 91.3466 121.22 91.5088 121.218 91.6911C121.218 91.8426 121.252 91.974 121.321 92.0852C121.392 92.1965 121.488 92.2912 121.608 92.3693C121.729 92.4451 121.863 92.509 122.01 92.5611C122.157 92.6132 122.305 92.657 122.454 92.6925L123.135 92.8629C123.41 92.9268 123.674 93.0133 123.927 93.1222C124.183 93.2311 124.412 93.3684 124.613 93.5341C124.816 93.6998 124.977 93.8999 125.096 94.1342C125.214 94.3686 125.273 94.6432 125.273 94.9581C125.273 95.3842 125.164 95.7595 124.947 96.0838C124.729 96.4058 124.414 96.6579 124.002 96.8402C123.592 97.0201 123.096 97.1101 122.514 97.1101C121.948 97.1101 121.457 97.0225 121.04 96.8473C120.626 96.6721 120.302 96.4164 120.067 96.0803C119.835 95.7441 119.71 95.3345 119.691 94.8516H120.987C121.006 95.1049 121.084 95.3156 121.221 95.4837C121.359 95.6518 121.537 95.7772 121.758 95.8601C121.98 95.9429 122.229 95.9844 122.503 95.9844C122.79 95.9844 123.041 95.9418 123.256 95.8565C123.474 95.7689 123.644 95.6482 123.768 95.4943C123.891 95.3381 123.953 95.1558 123.956 94.9474C123.953 94.758 123.898 94.6018 123.789 94.4787C123.68 94.3532 123.527 94.2491 123.331 94.1662C123.137 94.081 122.909 94.0052 122.649 93.9389L121.822 93.7259C121.223 93.572 120.749 93.3388 120.401 93.0263C120.055 92.7114 119.883 92.2936 119.883 91.7727C119.883 91.3442 119.999 90.969 120.231 90.647C120.465 90.325 120.783 90.0753 121.186 89.8977C121.588 89.7178 122.044 89.6278 122.553 89.6278C123.069 89.6278 123.521 89.7178 123.91 89.8977C124.3 90.0753 124.607 90.3227 124.829 90.6399C125.052 90.9548 125.167 91.317 125.174 91.7266H123.906ZM131.251 97.1065C130.706 97.1065 130.239 96.987 129.848 96.7479C129.46 96.5088 129.16 96.1785 128.95 95.7571C128.741 95.3333 128.637 94.8456 128.637 94.294C128.637 93.7401 128.744 93.2512 128.957 92.8274C129.17 92.4013 129.47 92.0698 129.859 91.8331C130.249 91.594 130.711 91.4744 131.244 91.4744C131.686 91.4744 132.078 91.5561 132.419 91.7195C132.762 91.8804 133.036 92.1089 133.239 92.4048C133.443 92.6984 133.559 93.0417 133.587 93.4347H132.359C132.309 93.1719 132.191 92.9529 132.004 92.7777C131.819 92.6001 131.571 92.5114 131.261 92.5114C130.999 92.5114 130.768 92.5824 130.569 92.7244C130.37 92.8641 130.215 93.0653 130.104 93.3281C129.995 93.5909 129.94 93.9058 129.94 94.2727C129.94 94.6444 129.995 94.964 130.104 95.2315C130.213 95.4967 130.365 95.7015 130.562 95.8459C130.761 95.9879 130.994 96.0589 131.261 96.0589C131.451 96.0589 131.62 96.0234 131.769 95.9524C131.921 95.879 132.047 95.7737 132.149 95.6364C132.251 95.4991 132.321 95.3321 132.359 95.1357H133.587C133.557 95.5215 133.443 95.8636 133.246 96.1619C133.05 96.4579 132.782 96.6899 132.444 96.858C132.105 97.0237 131.708 97.1065 131.251 97.1065ZM137.022 97.1065C136.49 97.1065 136.028 96.9893 135.637 96.755C135.247 96.5206 134.944 96.1927 134.728 95.7713C134.515 95.3499 134.409 94.8575 134.409 94.294C134.409 93.7306 134.515 93.237 134.728 92.8132C134.944 92.3894 135.247 92.0604 135.637 91.826C136.028 91.5916 136.49 91.4744 137.022 91.4744C137.555 91.4744 138.017 91.5916 138.407 91.826C138.798 92.0604 139.1 92.3894 139.313 92.8132C139.528 93.237 139.636 93.7306 139.636 94.294C139.636 94.8575 139.528 95.3499 139.313 95.7713C139.1 96.1927 138.798 96.5206 138.407 96.755C138.017 96.9893 137.555 97.1065 137.022 97.1065ZM137.029 96.0767C137.318 96.0767 137.56 95.9974 137.754 95.8388C137.948 95.6778 138.092 95.4624 138.187 95.1925C138.284 94.9226 138.333 94.6219 138.333 94.2905C138.333 93.9567 138.284 93.6548 138.187 93.3849C138.092 93.1127 137.948 92.8961 137.754 92.7351C137.56 92.5741 137.318 92.4936 137.029 92.4936C136.733 92.4936 136.487 92.5741 136.291 92.7351C136.097 92.8961 135.951 93.1127 135.854 93.3849C135.759 93.6548 135.712 93.9567 135.712 94.2905C135.712 94.6219 135.759 94.9226 135.854 95.1925C135.951 95.4624 136.097 95.6778 136.291 95.8388C136.487 95.9974 136.733 96.0767 137.029 96.0767ZM142.751 97.0959C142.323 97.0959 141.939 96.9858 141.6 96.7656C141.262 96.5455 140.994 96.2259 140.798 95.8068C140.601 95.3878 140.503 94.8788 140.503 94.2798C140.503 93.6738 140.603 93.1624 140.801 92.7457C141.003 92.3267 141.274 92.0107 141.615 91.7976C141.956 91.5821 142.336 91.4744 142.755 91.4744C143.074 91.4744 143.337 91.5289 143.543 91.6378C143.749 91.7443 143.912 91.8733 144.033 92.0249C144.154 92.174 144.247 92.3149 144.314 92.4474H144.367V89.7273H145.656V97H144.392V96.1406H144.314C144.247 96.2732 144.151 96.4141 144.026 96.5632C143.9 96.71 143.735 96.8355 143.529 96.9396C143.323 97.0438 143.064 97.0959 142.751 97.0959ZM143.11 96.0412C143.382 96.0412 143.614 95.9678 143.806 95.821C143.998 95.6719 144.143 95.4647 144.243 95.1996C144.342 94.9344 144.392 94.6255 144.392 94.2727C144.392 93.92 144.342 93.6134 144.243 93.353C144.145 93.0926 144.001 92.8902 143.809 92.7457C143.62 92.6013 143.387 92.5291 143.11 92.5291C142.823 92.5291 142.584 92.6037 142.392 92.7528C142.201 92.902 142.056 93.108 141.959 93.3707C141.862 93.6335 141.814 93.9342 141.814 94.2727C141.814 94.6136 141.862 94.9179 141.959 95.1854C142.059 95.4505 142.204 95.66 142.396 95.8139C142.59 95.9654 142.828 96.0412 143.11 96.0412ZM149.441 97.1065C148.894 97.1065 148.421 96.9929 148.024 96.7656C147.628 96.536 147.324 96.2116 147.111 95.7926C146.898 95.3712 146.791 94.8752 146.791 94.3047C146.791 93.7436 146.898 93.2512 147.111 92.8274C147.326 92.4013 147.627 92.0698 148.013 91.8331C148.399 91.594 148.852 91.4744 149.373 91.4744C149.709 91.4744 150.026 91.5289 150.325 91.6378C150.625 91.7443 150.891 91.91 151.12 92.1349C151.352 92.3598 151.535 92.6463 151.667 92.9943C151.8 93.34 151.866 93.7519 151.866 94.2301V94.6243H147.395V93.7578H150.634C150.631 93.5116 150.578 93.2926 150.474 93.1009C150.37 92.9067 150.224 92.754 150.037 92.6428C149.852 92.5315 149.637 92.4759 149.391 92.4759C149.128 92.4759 148.897 92.5398 148.698 92.6676C148.499 92.7931 148.344 92.9588 148.233 93.1648C148.124 93.3684 148.069 93.5921 148.066 93.8359V94.5923C148.066 94.9096 148.124 95.1818 148.24 95.4091C148.356 95.634 148.518 95.8068 148.727 95.9276C148.935 96.0459 149.179 96.1051 149.458 96.1051C149.645 96.1051 149.815 96.0791 149.966 96.027C150.118 95.9725 150.249 95.8932 150.36 95.7891C150.472 95.6849 150.556 95.5559 150.612 95.402L151.813 95.5369C151.737 95.8542 151.593 96.1312 151.379 96.3679C151.169 96.6023 150.899 96.7846 150.57 96.9148C150.241 97.0426 149.864 97.1065 149.441 97.1065Z" fill="white"/>
<g filter="url(#filter2_b_304_2)">
<path d="M70.8495 98.5233C71.5874 97.2452 72.9511 96.4579 74.4269 96.4579L98.5731 96.4579C100.049 96.4579 101.413 97.2452 102.15 98.5233L114.224 119.434C114.961 120.713 114.961 122.287 114.224 123.565L102.15 144.476C101.413 145.755 100.049 146.542 98.5731 146.542L74.4269 146.542C72.9511 146.542 71.5874 145.755 70.8495 144.476L58.7765 123.565C58.0386 122.287 58.0386 120.713 58.7765 119.434L70.8495 98.5233Z" fill="url(#paint2_radial_304_2)" fill-opacity="0.2"/>
<path d="M70.9986 98.6094C71.7057 97.3845 73.0126 96.63 74.4269 96.63L98.5731 96.63C99.9874 96.63 101.294 97.3845 102.001 98.6094L114.074 119.521C114.782 120.745 114.782 122.254 114.074 123.479L102.001 144.39C101.294 145.615 99.9874 146.37 98.5731 146.37L74.4269 146.37C73.0126 146.37 71.7057 145.615 70.9986 144.39L58.9255 123.479C58.2184 122.254 58.2184 120.745 58.9255 119.521L70.9986 98.6094Z" stroke="#7391FF" stroke-width="0.344235"/>
</g>
<path d="M76.25 118.613C76.2344 118.449 76.1979 118.305 76.1406 118.18C76.0833 118.052 76.0052 117.944 75.9062 117.855C75.8073 117.767 75.6849 117.701 75.5391 117.656C75.3932 117.609 75.224 117.586 75.0313 117.586C74.6458 117.586 74.2891 117.68 73.9609 117.867C73.6328 118.055 73.3555 118.328 73.1289 118.687C72.9023 119.044 72.7474 119.478 72.6641 119.988C72.5807 120.501 72.5781 120.939 72.6563 121.301C72.737 121.663 72.8984 121.939 73.1406 122.129C73.3828 122.319 73.7031 122.414 74.1016 122.414C74.4583 122.414 74.7734 122.357 75.0469 122.242C75.3203 122.125 75.5417 121.96 75.7109 121.746C75.8828 121.533 75.9909 121.281 76.0352 120.992L76.3906 121.035H74.4453L74.6797 119.625H78.125L77.9492 120.684C77.832 121.4 77.5794 122.013 77.1914 122.523C76.806 123.034 76.3242 123.426 75.7461 123.699C75.1706 123.973 74.5391 124.109 73.8516 124.109C73.0911 124.109 72.4492 123.944 71.9258 123.613C71.4023 123.283 71.0299 122.811 70.8086 122.199C70.5872 121.585 70.5456 120.855 70.6836 120.012C70.793 119.355 70.987 118.773 71.2656 118.266C71.5469 117.755 71.8906 117.323 72.2969 116.969C72.7057 116.615 73.1576 116.346 73.6523 116.164C74.1471 115.982 74.6615 115.891 75.1953 115.891C75.6563 115.891 76.0755 115.957 76.4531 116.09C76.8307 116.223 77.1536 116.41 77.4219 116.652C77.6901 116.895 77.8919 117.182 78.0273 117.516C78.1654 117.849 78.2253 118.215 78.207 118.613H76.25ZM83.7842 118.414C83.805 118.12 83.7269 117.892 83.5498 117.73C83.3753 117.569 83.0993 117.488 82.7217 117.488C82.4717 117.488 82.2581 117.521 82.0811 117.586C81.904 117.648 81.7646 117.737 81.6631 117.852C81.5615 117.964 81.4977 118.094 81.4717 118.242C81.4482 118.359 81.4548 118.464 81.4912 118.555C81.5277 118.646 81.5915 118.727 81.6826 118.797C81.7764 118.867 81.8923 118.928 82.0303 118.98C82.1709 119.033 82.3285 119.078 82.5029 119.117L83.1592 119.273C83.5394 119.359 83.8688 119.474 84.1475 119.617C84.4287 119.758 84.6566 119.928 84.8311 120.129C85.0055 120.327 85.1253 120.555 85.1904 120.812C85.2555 121.07 85.2607 121.359 85.2061 121.68C85.1227 122.185 84.9235 122.618 84.6084 122.98C84.2959 123.342 83.887 123.62 83.3818 123.812C82.8792 124.005 82.2946 124.102 81.6279 124.102C80.9613 124.102 80.3949 124.001 79.9287 123.801C79.4652 123.598 79.1292 123.292 78.9209 122.883C78.7126 122.474 78.6566 121.958 78.7529 121.336H80.6006C80.5719 121.594 80.6045 121.809 80.6982 121.98C80.7946 122.152 80.943 122.283 81.1436 122.371C81.3441 122.46 81.5863 122.504 81.8701 122.504C82.1305 122.504 82.3584 122.469 82.5537 122.398C82.7516 122.328 82.9092 122.23 83.0264 122.105C83.1462 121.98 83.2191 121.837 83.2451 121.676C83.2712 121.527 83.2464 121.398 83.1709 121.289C83.098 121.18 82.973 121.085 82.7959 121.004C82.6214 120.923 82.3923 120.85 82.1084 120.785L81.3076 120.59C80.6462 120.428 80.1449 120.171 79.8037 119.816C79.4652 119.462 79.3454 118.982 79.4443 118.375C79.5277 117.878 79.7334 117.443 80.0615 117.07C80.3923 116.698 80.8102 116.409 81.3154 116.203C81.8232 115.995 82.3818 115.891 82.9912 115.891C83.611 115.891 84.1318 115.996 84.5537 116.207C84.9782 116.415 85.2842 116.71 85.4717 117.09C85.6618 117.467 85.7165 117.909 85.6357 118.414H83.7842ZM87.2832 124H85.2051L89.2324 116H91.8066L93.1777 124H91.0996L90.2207 118.016H90.1582L87.2832 124ZM87.5332 120.852H91.877L91.627 122.32H87.2832L87.5332 120.852ZM94.0391 124L95.3672 116H98.6719C99.2708 116 99.7695 116.116 100.168 116.348C100.566 116.579 100.849 116.904 101.016 117.32C101.182 117.737 101.22 118.22 101.129 118.77C101.04 119.324 100.841 119.807 100.531 120.219C100.224 120.63 99.8281 120.949 99.3438 121.176C98.8594 121.402 98.3086 121.516 97.6914 121.516H95.6563L95.9102 119.992H97.5898C97.8841 119.992 98.138 119.941 98.3516 119.84C98.5677 119.738 98.7409 119.596 98.8711 119.414C99.0013 119.232 99.0872 119.017 99.1289 118.77C99.168 118.522 99.1523 118.309 99.082 118.129C99.0117 117.947 98.8854 117.806 98.7031 117.707C98.5234 117.608 98.2891 117.559 98 117.559H97.0469L95.9727 124H94.0391Z" fill="white"/>
<g filter="url(#filter3_b_304_2)">
<path d="M23.3969 18.3075C24.4149 16.5443 26.2962 15.4581 28.3322 15.4581L50.6678 15.4581C52.7038 15.4581 54.5851 16.5443 55.6031 18.3075L66.7709 37.6508C67.7889 39.414 67.7889 41.5863 66.7709 43.3495L55.6031 62.6928C54.5851 64.456 52.7038 65.5421 50.6678 65.5421L28.3322 65.5421C26.2962 65.5421 24.4149 64.456 23.3969 62.6928L12.2291 43.3495C11.2111 41.5863 11.2111 39.414 12.2291 37.6508L23.3969 18.3075Z" fill="url(#paint3_radial_304_2)" fill-opacity="0.2"/>
<path d="M23.6025 18.4262C24.5781 16.7365 26.381 15.6956 28.3322 15.6956L50.6678 15.6956C52.619 15.6956 54.4219 16.7365 55.3975 18.4262L66.5653 37.7695C67.5409 39.4592 67.5409 41.5411 66.5653 43.2308L55.3975 62.574C54.4219 64.2638 52.619 65.3047 50.6678 65.3047L28.3322 65.3047C26.381 65.3047 24.5781 64.2638 23.6025 62.574L12.4347 43.2308C11.4591 41.5411 11.4591 39.4592 12.4347 37.7695L23.6025 18.4262Z" stroke="#7391FF" stroke-width="0.474896"/>
</g>
<path d="M26.8945 30.1022L29.0877 55.0049L38.9287 58.2891L48.8326 55.0049L51.0258 30.1022H26.8945ZM46.2624 38.1493H34.7121L34.9697 41.2574H46.0047L45.1501 50.5944L38.9979 52.2931V52.312H38.9287L32.7263 50.5944L32.3492 45.8252H35.3468L35.5667 48.2224L38.9287 49.1347L42.3034 48.2224L42.6804 44.3089H32.1921L31.3877 35.1481H46.5389L46.2624 38.1493Z" fill="white"/>
<g filter="url(#filter4_b_304_2)">
<path d="M70.8495 45.5233C71.5874 44.2452 72.9511 43.4579 74.4269 43.4579L98.5731 43.4579C100.049 43.4579 101.413 44.2452 102.15 45.5233L114.224 66.4345C114.961 67.7126 114.961 69.2872 114.224 70.5653L102.15 91.4765C101.413 92.7546 100.049 93.5419 98.5731 93.5419L74.4269 93.5419C72.9511 93.5419 71.5874 92.7546 70.8495 91.4765L58.7765 70.5653C58.0386 69.2872 58.0386 67.7126 58.7765 66.4345L70.8495 45.5233Z" fill="url(#paint4_radial_304_2)" fill-opacity="0.2"/>
<path d="M70.9986 45.6094C71.7057 44.3845 73.0126 43.63 74.4269 43.63L98.5731 43.63C99.9874 43.63 101.294 44.3845 102.001 45.6094L114.074 66.5205C114.782 67.7454 114.782 69.2544 114.074 70.4792L102.001 91.3904C101.294 92.6152 99.9874 93.3698 98.5731 93.3698L74.4269 93.3698C73.0126 93.3698 71.7057 92.6152 70.9986 91.3904L58.9255 70.4792C58.2184 69.2544 58.2184 67.7454 58.9255 66.5205L70.9986 45.6094Z" stroke="#7391FF" stroke-width="0.344235"/>
</g>
<path d="M72.7412 57.0039L74.9344 81.7449L84.8068 85.0078L94.6793 81.7449L96.8725 57.0039H72.7412ZM92.417 62.0046L92.1154 64.9613L84.8697 68.043L84.8508 68.0492H91.8577L91.0533 77.213L84.8823 79.007L78.6735 77.1817L78.2713 72.5623H81.3443L81.5454 74.9564L84.8508 75.7878L88.2883 74.8252L88.5208 70.9746L78.0702 70.9434V70.9371L78.0576 70.9434L77.8314 68.0492L84.876 65.13L85.2844 64.9613H77.5612L77.1967 62.0046H92.417Z" fill="white"/>
<g filter="url(#filter5_b_304_2)">
<path d="M117.85 17.5233C118.587 16.2452 119.951 15.4579 121.427 15.4579L145.573 15.4579C147.049 15.4579 148.413 16.2452 149.15 17.5233L161.224 38.4345C161.961 39.7126 161.961 41.2872 161.224 42.5653L149.15 63.4765C148.413 64.7546 147.049 65.5419 145.573 65.5419L121.427 65.5419C119.951 65.5419 118.587 64.7546 117.85 63.4765L105.776 42.5653C105.039 41.2872 105.039 39.7126 105.776 38.4345L117.85 17.5233Z" fill="url(#paint5_radial_304_2)" fill-opacity="0.2"/>
<path d="M117.999 17.6094C118.706 16.3845 120.013 15.63 121.427 15.63L145.573 15.63C146.987 15.63 148.294 16.3845 149.001 17.6094L161.074 38.5205C161.782 39.7454 161.782 41.2544 161.074 42.4792L149.001 63.3904C148.294 64.6152 146.987 65.3698 145.573 65.3698L121.427 65.3698C120.013 65.3698 118.706 64.6152 117.999 63.3904L105.926 42.4792C105.218 41.2544 105.218 39.7454 105.926 38.5205L117.999 17.6094Z" stroke="#7391FF" stroke-width="0.344235"/>
</g>
<path d="M133.091 47.564C133.057 47.6257 133.074 47.5983 133.091 47.564V47.564ZM147.322 42.5882C146.173 42.5878 145.04 42.852 144.009 43.3603C143.672 42.6797 143.324 42.0849 143.266 41.6388C143.198 41.1183 143.124 40.8095 143.204 40.1918C143.284 39.5741 143.643 38.6991 143.638 38.6361C143.632 38.5732 143.558 38.2587 142.821 38.2529C142.084 38.2472 141.45 38.3959 141.376 38.5904C141.246 38.9458 141.145 39.3111 141.073 39.6828C140.942 40.3519 139.6 42.7426 138.84 43.9894C138.589 43.5033 138.378 43.0743 138.332 42.7312C138.263 42.2107 138.189 41.9019 138.269 41.2842C138.349 40.6665 138.709 39.7914 138.703 39.7285C138.698 39.6656 138.623 39.3511 137.887 39.3453C137.151 39.3396 136.516 39.4883 136.442 39.6828C136.367 39.8772 136.288 40.3348 136.139 40.7752C135.99 41.2155 134.203 45.1962 133.735 46.2314C133.495 46.7575 133.29 47.1808 133.141 47.4667C133.118 47.5125 133.101 47.5411 133.09 47.564C133.107 47.5354 133.118 47.5068 133.118 47.5182C132.993 47.7641 132.918 47.9014 132.918 47.9014V47.9071C132.821 48.0901 132.713 48.256 132.661 48.256C132.627 48.256 132.553 47.7756 132.678 47.1178C132.947 45.7338 133.581 43.5833 133.575 43.509C133.57 43.4689 133.695 43.0972 133.158 42.897C132.638 42.7083 132.45 43.0228 132.404 43.0228C132.358 43.0228 132.324 43.1372 132.324 43.1372C132.324 43.1372 132.901 40.7122 131.217 40.7122C130.165 40.7122 128.703 41.8675 127.984 42.9142C127.533 43.1601 126.556 43.692 125.528 44.2582C125.134 44.4755 124.728 44.6986 124.346 44.9102C124.317 44.8816 124.294 44.853 124.266 44.8244C122.221 42.6396 118.446 41.0954 118.606 38.1614C118.664 37.0919 119.035 34.2838 125.865 30.8751C131.463 28.084 135.939 28.8504 136.71 30.5548C137.818 32.9855 134.317 37.5094 128.503 38.1614C126.287 38.4074 125.123 37.5495 124.831 37.2292C124.528 36.8918 124.483 36.8746 124.369 36.9375C124.18 37.0405 124.3 37.3379 124.369 37.5152C124.54 37.967 125.254 38.7677 126.47 39.168C127.538 39.5169 130.136 39.7114 133.278 38.4932C136.807 37.132 139.554 33.3401 138.748 30.1659C137.928 26.9402 132.586 25.8821 127.534 27.678C124.524 28.7475 121.27 30.429 118.928 32.6194C116.147 35.2274 115.702 37.498 115.884 38.4474C116.535 41.8161 121.172 44.0123 123.028 45.6366C122.937 45.688 122.851 45.7338 122.771 45.7795C121.841 46.2428 118.305 48.0958 117.42 50.0518C116.421 52.2709 117.586 53.8609 118.351 54.0782C120.738 54.7417 123.183 53.5463 124.496 51.5846C125.809 49.6229 125.65 47.0607 125.044 45.8939C125.039 45.8768 125.027 45.8653 125.021 45.8482C125.261 45.7052 125.507 45.5622 125.753 45.4192C126.226 45.139 126.689 44.8816 127.094 44.6586C126.866 45.2762 126.7 46.0197 126.615 47.095C126.512 48.3532 127.032 49.9832 127.706 50.6238C128.003 50.904 128.362 50.9097 128.585 50.9097C129.373 50.9097 129.727 50.2577 130.121 49.4799C130.606 48.5305 131.035 47.4267 131.035 47.4267C131.035 47.4267 130.498 50.4122 131.966 50.4122C132.502 50.4122 133.039 49.7201 133.28 49.3655V49.3713C133.28 49.3713 133.291 49.3484 133.32 49.3026C133.377 49.2168 133.406 49.1654 133.406 49.1654V49.1482C133.623 48.7764 134.097 47.9243 134.81 46.5173C135.736 44.6986 136.621 42.428 136.621 42.428C136.706 42.9272 136.824 43.4201 136.975 43.9036C137.135 44.4469 137.472 45.0417 137.74 45.6194C137.523 45.9168 137.392 46.0884 137.392 46.0884C137.392 46.0928 137.394 46.0968 137.397 46.0998C137.226 46.3286 137.032 46.5745 136.832 46.8147C136.101 47.6841 135.232 48.6792 135.118 48.9652C134.981 49.3026 135.015 49.5543 135.278 49.7487C135.472 49.8974 135.815 49.9203 136.174 49.8917C136.831 49.846 137.294 49.6858 137.517 49.5829C137.928 49.4354 138.316 49.2314 138.67 48.9766C139.384 48.4504 139.818 47.6955 139.778 46.7003C139.756 46.1513 139.578 45.6022 139.361 45.0875C139.424 44.996 139.493 44.8988 139.556 44.8015C140.686 43.1487 141.56 41.3345 141.56 41.3345C141.646 41.8336 141.764 42.3266 141.914 42.8101C142.051 43.2733 142.319 43.7824 142.565 44.2799C141.503 45.1435 140.846 46.1444 140.618 46.8021C140.195 48.0204 140.526 48.5694 141.149 48.6952C141.429 48.7524 141.829 48.6209 142.126 48.4951C142.567 48.3479 142.983 48.1338 143.359 47.8602C144.073 47.334 144.764 46.5963 144.718 45.5954C144.701 45.1435 144.575 44.6917 144.409 44.2571C145.306 43.8796 146.471 43.6737 147.956 43.8453C151.137 44.217 151.76 46.2073 151.64 47.0366C151.52 47.8659 150.851 48.3292 150.629 48.4665C150.406 48.6037 150.337 48.6552 150.354 48.7581C150.383 48.9068 150.486 48.9011 150.674 48.8668C150.937 48.8211 152.342 48.1919 152.405 46.6534C152.496 44.7089 150.629 42.5699 147.32 42.587L147.322 42.5882ZM122.806 50.864C121.755 52.0136 120.281 52.4482 119.648 52.0822C118.968 51.6864 119.236 49.9947 120.533 48.7696C121.321 48.0261 122.337 47.3398 123.011 46.9165C123.165 46.825 123.388 46.6878 123.662 46.5219C123.708 46.4933 123.731 46.4819 123.731 46.4819C123.782 46.4475 123.84 46.419 123.897 46.3846C124.37 48.1233 123.914 49.6561 122.806 50.8628V50.864ZM130.481 45.6366C130.115 46.5345 129.345 48.8222 128.876 48.7021C128.476 48.5991 128.231 46.8548 128.796 45.139C129.082 44.2754 129.687 43.2459 130.047 42.8455C130.624 42.1993 131.258 41.9934 131.406 42.2507C131.606 42.5882 130.709 45.0761 130.481 45.6366ZM136.822 48.6678C136.667 48.7478 136.525 48.7993 136.456 48.7593C136.405 48.7307 136.519 48.622 136.519 48.622C136.519 48.622 137.313 47.7698 137.627 47.3809C137.81 47.1522 138.021 46.8834 138.249 46.586C138.249 46.6146 138.255 46.6431 138.255 46.6775C138.247 47.7012 137.265 48.3933 136.82 48.6678H136.822ZM141.71 47.5525C141.596 47.4724 141.613 47.2036 141.996 46.3686C142.144 46.0426 142.487 45.4936 143.081 44.9674C143.149 45.1666 143.185 45.3749 143.19 45.5851C143.184 46.8719 142.264 47.3523 141.711 47.5525H141.71Z" fill="white"/>
<g filter="url(#filter6_b_304_2)">
<path d="M209.85 16.5233C210.587 15.2452 211.951 14.4579 213.427 14.4579L237.573 14.4579C239.049 14.4579 240.413 15.2452 241.15 16.5233L253.224 37.4345C253.961 38.7126 253.961 40.2872 253.224 41.5653L241.15 62.4765C240.413 63.7546 239.049 64.5419 237.573 64.5419L213.427 64.5419C211.951 64.5419 210.587 63.7546 209.85 62.4765L197.776 41.5653C197.039 40.2872 197.039 38.7126 197.776 37.4345L209.85 16.5233Z" fill="url(#paint6_radial_304_2)" fill-opacity="0.2"/>
<path d="M209.999 16.6094C210.706 15.3845 212.013 14.63 213.427 14.63L237.573 14.63C238.987 14.63 240.294 15.3845 241.001 16.6094L253.074 37.5205C253.782 38.7454 253.782 40.2544 253.074 41.4792L241.001 62.3904C240.294 63.6152 238.987 64.3698 237.573 64.3698L213.427 64.3698C212.013 64.3698 210.706 63.6152 209.999 62.3904L197.926 41.4792C197.218 40.2544 197.218 38.7454 197.926 37.5205L209.999 16.6094Z" stroke="#7391FF" stroke-width="0.344235"/>
</g>
<path d="M234.644 27.4547H214.875C213.387 27.4547 212.18 28.6636 212.18 30.1536V49.9456C212.18 51.4356 213.387 52.6445 214.875 52.6445H234.644C236.132 52.6445 237.339 51.4356 237.339 49.9456V30.1536C237.339 28.6636 236.132 27.4547 234.644 27.4547ZM225.871 47.1005C225.871 49.552 224.434 50.671 222.339 50.671C220.446 50.671 219.351 49.6926 218.79 48.5062L220.716 47.3423C221.087 48.0002 221.424 48.5568 222.238 48.5568C223.013 48.5568 223.507 48.2532 223.507 47.0668V39.0207H225.871V47.1005ZM231.465 50.671C229.269 50.671 227.848 49.6251 227.158 48.2532L229.084 47.1399C229.589 47.9664 230.252 48.5793 231.414 48.5793C232.392 48.5793 233.021 48.0901 233.021 47.4098C233.021 46.6001 232.38 46.3133 231.296 45.8354L230.707 45.5824C229 44.8571 227.871 43.9405 227.871 42.012C227.871 40.2352 229.224 38.8857 231.33 38.8857C232.835 38.8857 233.914 39.4086 234.689 40.7806L232.846 41.9613C232.442 41.236 232.004 40.9493 231.325 40.9493C230.634 40.9493 230.196 41.3878 230.196 41.9613C230.196 42.6698 230.634 42.9566 231.65 43.4008L232.24 43.6538C234.25 44.5141 235.379 45.3968 235.379 47.376C235.379 49.5014 233.706 50.671 231.465 50.671Z" fill="white"/>
<g filter="url(#filter7_b_304_2)">
<path d="M163.85 43.5233C164.587 42.2452 165.951 41.4579 167.427 41.4579L191.573 41.4579C193.049 41.4579 194.413 42.2452 195.15 43.5233L207.224 64.4345C207.961 65.7126 207.961 67.2872 207.224 68.5653L195.15 89.4765C194.413 90.7546 193.049 91.5419 191.573 91.5419L167.427 91.5419C165.951 91.5419 164.587 90.7546 163.85 89.4765L151.776 68.5653C151.039 67.2872 151.039 65.7126 151.776 64.4345L163.85 43.5233Z" fill="url(#paint7_radial_304_2)" fill-opacity="0.2"/>
<path d="M163.999 43.6094C164.706 42.3845 166.013 41.63 167.427 41.63L191.573 41.63C192.987 41.63 194.294 42.3845 195.001 43.6094L207.074 64.5205C207.782 65.7454 207.782 67.2544 207.074 68.4792L195.001 89.3904C194.294 90.6152 192.987 91.3698 191.573 91.3698L167.427 91.3698C166.013 91.3698 164.706 90.6152 163.999 89.3904L151.926 68.4792C151.218 67.2544 151.218 65.7454 151.926 64.5205L163.999 43.6094Z" stroke="#7391FF" stroke-width="0.344235"/>
</g>
<path d="M185.549 61.0462C187.004 61.0462 188.399 60.4676 189.428 59.4376C190.457 58.4077 191.035 57.0108 191.035 55.5542C191.035 54.0976 190.457 52.7007 189.428 51.6707C188.399 50.6408 187.004 50.0621 185.549 50.0621H174.579C173.125 50.0621 171.73 50.6404 170.702 51.6698C169.674 52.6991 169.096 54.0952 169.096 55.551C169.096 57.0067 169.674 58.4028 170.702 59.4321C171.73 60.4615 173.125 61.0398 174.579 61.0398C173.124 61.0398 171.728 61.6184 170.7 62.6484C169.671 63.6783 169.093 65.0752 169.093 66.5318C169.093 67.9884 169.671 69.3853 170.7 70.4153C171.728 71.4452 173.124 72.0239 174.579 72.0239C173.494 72.0232 172.433 72.3447 171.53 72.9476C170.628 73.5506 169.924 74.4079 169.509 75.4112C169.093 76.4145 168.984 77.5187 169.195 78.5842C169.406 79.6497 169.928 80.6286 170.694 81.3971C171.461 82.1656 172.438 82.6892 173.502 82.9018C174.566 83.1143 175.669 83.0062 176.672 82.5911C177.674 82.176 178.531 81.4726 179.134 80.5698C179.738 79.667 180.06 78.6053 180.061 77.5191V61.0462H185.549ZM185.549 61.0462C184.465 61.0462 183.405 61.3681 182.504 61.9712C181.602 62.5744 180.899 63.4316 180.484 64.4346C180.07 65.4375 179.961 66.5411 180.173 67.6059C180.384 68.6706 180.906 69.6486 181.673 70.4162C182.44 71.1838 183.416 71.7066 184.48 71.9184C185.543 72.1302 186.646 72.0215 187.647 71.606C188.649 71.1906 189.505 70.4871 190.108 69.5845C190.71 68.6818 191.032 67.6206 191.032 66.535C191.031 65.0794 190.454 63.6834 189.426 62.654C188.398 61.6247 187.003 61.0464 185.549 61.0462Z" fill="white"/>
<g filter="url(#filter8_b_304_2)">
<path d="M210.85 70.5232C211.587 69.2451 212.951 68.4578 214.427 68.4578L238.573 68.4578C240.049 68.4578 241.413 69.2451 242.15 70.5232L254.224 91.4344C254.961 92.7124 254.961 94.2871 254.224 95.5652L242.15 116.476C241.413 117.754 240.049 118.542 238.573 118.542L214.427 118.542C212.951 118.542 211.587 117.754 210.85 116.476L198.776 95.5652C198.039 94.2871 198.039 92.7124 198.776 91.4344L210.85 70.5232Z" fill="url(#paint8_radial_304_2)" fill-opacity="0.2"/>
<path d="M210.999 70.6092C211.706 69.3844 213.013 68.6299 214.427 68.6299L238.573 68.6299C239.987 68.6299 241.294 69.3844 242.001 70.6092L254.074 91.5204C254.782 92.7452 254.782 94.2543 254.074 95.4791L242.001 116.39C241.294 117.615 239.987 118.37 238.573 118.37L214.427 118.37C213.013 118.37 211.706 117.615 210.999 116.39L198.926 95.4791C198.218 94.2543 198.218 92.7452 198.926 91.5204L210.999 70.6092Z" stroke="#7391FF" stroke-width="0.344235"/>
</g>
<path d="M228.633 79.2583H239.617V103.968L228.633 79.2583ZM220.985 79.2583H210.001V103.968L220.985 79.2583ZM224.809 88.4021L231.718 103.968H227.026L225.053 99.0258H219.995L224.809 88.4021Z" fill="white"/>
<g filter="url(#filter9_b_304_2)">
<path d="M23.8495 70.5233C24.5874 69.2452 25.9511 68.4579 27.4269 68.4579L51.5731 68.4579C53.0489 68.4579 54.4126 69.2452 55.1505 70.5233L67.2235 91.4345C67.9614 92.7126 67.9614 94.2872 67.2235 95.5653L55.1505 116.476C54.4126 117.755 53.0489 118.542 51.5731 118.542L27.4269 118.542C25.9511 118.542 24.5874 117.755 23.8495 116.476L11.7765 95.5653C11.0386 94.2872 11.0386 92.7126 11.7765 91.4345L23.8495 70.5233Z" fill="url(#paint9_radial_304_2)" fill-opacity="0.2"/>
<path d="M23.9986 70.6094C24.7057 69.3845 26.0126 68.63 27.4269 68.63L51.5731 68.63C52.9874 68.63 54.2943 69.3845 55.0014 70.6094L67.0745 91.5205C67.7816 92.7454 67.7816 94.2544 67.0745 95.4792L55.0014 116.39C54.2943 117.615 52.9874 118.37 51.5731 118.37L27.4269 118.37C26.0126 118.37 24.7057 117.615 23.9986 116.39L11.9255 95.4792C11.2184 94.2544 11.2184 92.7454 11.9255 91.5205L23.9986 70.6094Z" stroke="#7391FF" stroke-width="0.344235"/>
</g>
<path d="M48.6391 78.7095H27.9596C26.4027 78.7095 25.1396 79.9741 25.1396 81.5328V102.237C25.1396 103.796 26.4027 105.06 27.9596 105.06H48.6391C50.196 105.06 51.4591 103.796 51.4591 102.237V81.5328C51.4591 79.9741 50.196 78.7095 48.6391 78.7095ZM41.4307 101.278C40.9372 101.367 40.755 101.061 40.755 100.808C40.755 100.49 40.7668 98.8668 40.7668 97.5552C40.7668 96.6376 40.4613 96.0553 40.1029 95.7494C42.2766 95.5082 44.5678 95.2083 44.5678 91.4497C44.5678 90.3792 44.186 89.844 43.5632 89.1558C43.6631 88.9028 43.998 87.8617 43.4634 86.5089C42.6468 86.256 40.7785 87.5618 40.7785 87.5618C40.0031 87.3441 39.163 87.2324 38.3346 87.2324C37.5062 87.2324 36.6661 87.3441 35.8907 87.5618C35.8907 87.5618 34.0224 86.256 33.2058 86.5089C32.6712 87.8559 33.0002 88.897 33.106 89.1558C32.4832 89.844 32.1895 90.3792 32.1895 91.4497C32.1895 95.1906 34.3808 95.5082 36.5545 95.7494C36.2725 96.0023 36.0199 96.4376 35.9318 97.0611C35.3737 97.314 33.9461 97.7493 33.0942 96.2435C32.5596 95.3141 31.5961 95.2377 31.5961 95.2377C30.6444 95.2259 31.5315 95.8376 31.5315 95.8376C32.166 96.1317 32.6125 97.2611 32.6125 97.2611C33.1823 99.008 35.9083 98.4198 35.9083 98.4198C35.9083 99.2374 35.92 100.567 35.92 100.808C35.92 101.061 35.7438 101.367 35.2444 101.278C31.367 99.9785 28.6528 96.2847 28.6528 91.9673C28.6528 86.5677 32.777 82.468 38.1701 82.468C43.5632 82.468 47.9341 86.5677 47.9341 91.9673C47.94 96.2847 45.3081 99.9844 41.4307 101.278ZM35.6674 97.6846C35.5558 97.7081 35.45 97.661 35.4383 97.5846C35.4265 97.4963 35.5029 97.4199 35.6145 97.3963C35.7262 97.3846 35.8319 97.4316 35.8437 97.5081C35.8613 97.5846 35.7849 97.661 35.6674 97.6846ZM35.1093 97.6316C35.1093 97.7081 35.0212 97.7728 34.9037 97.7728C34.7744 97.7846 34.6863 97.7199 34.6863 97.6316C34.6863 97.5552 34.7744 97.4905 34.8919 97.4905C35.0036 97.4787 35.1093 97.5434 35.1093 97.6316ZM34.3044 97.5669C34.2809 97.6434 34.1634 97.6787 34.0636 97.6434C33.9519 97.6199 33.8756 97.5316 33.8991 97.4552C33.9226 97.3787 34.0401 97.3434 34.1399 97.3669C34.2574 97.4022 34.3338 97.4905 34.3044 97.5669ZM33.5818 97.2493C33.529 97.314 33.4173 97.3022 33.3292 97.214C33.2411 97.1375 33.2176 97.0258 33.2763 96.9728C33.3292 96.9081 33.4408 96.9199 33.529 97.0081C33.6053 97.0846 33.6347 97.2022 33.5818 97.2493ZM33.0472 96.714C32.9943 96.7493 32.8945 96.714 32.8298 96.6258C32.7652 96.5376 32.7652 96.4376 32.8298 96.3964C32.8945 96.3435 32.9943 96.3847 33.0472 96.4729C33.1118 96.5611 33.1118 96.667 33.0472 96.714ZM32.6654 96.1435C32.6125 96.1964 32.5244 96.167 32.4597 96.1082C32.3951 96.0317 32.3834 95.9435 32.4362 95.9023C32.4891 95.8494 32.5772 95.8788 32.6419 95.9376C32.7065 96.0141 32.7182 96.1023 32.6654 96.1435ZM32.2717 95.7082C32.2482 95.7612 32.1719 95.7729 32.1072 95.7318C32.0309 95.6965 31.9956 95.6318 32.0191 95.5788C32.0426 95.5435 32.1072 95.5259 32.1836 95.5553C32.26 95.5965 32.2952 95.6612 32.2717 95.7082Z" fill="white"/>
<g filter="url(#filter10_b_304_2)">
<path d="M163.85 96.5233C164.587 95.2452 165.951 94.4579 167.427 94.4579L191.573 94.4579C193.049 94.4579 194.413 95.2452 195.15 96.5233L207.224 117.434C207.961 118.713 207.961 120.287 207.224 121.565L195.15 142.476C194.413 143.755 193.049 144.542 191.573 144.542L167.427 144.542C165.951 144.542 164.587 143.755 163.85 142.476L151.776 121.565C151.039 120.287 151.039 118.713 151.776 117.434L163.85 96.5233Z" fill="url(#paint10_radial_304_2)" fill-opacity="0.2"/>
<path d="M163.999 96.6094C164.706 95.3845 166.013 94.63 167.427 94.63L191.573 94.63C192.987 94.63 194.294 95.3845 195.001 96.6094L207.074 117.521C207.782 118.745 207.782 120.254 207.074 121.479L195.001 142.39C194.294 143.615 192.987 144.37 191.573 144.37L167.427 144.37C166.013 144.37 164.706 143.615 163.999 142.39L151.926 121.479C151.218 120.254 151.218 118.745 151.926 117.521L163.999 96.6094Z" stroke="#7391FF" stroke-width="0.344235"/>
</g>
<path d="M188.809 108.553H182.764L178.361 115.527L174.588 108.553H160.752L178.361 138.753L195.971 108.553H188.809ZM165.131 111.072H169.36L178.361 126.672L187.355 111.072H191.584L178.361 133.755L165.131 111.072Z" fill="white"/>
<g filter="url(#filter11_b_304_2)">
<path d="M256.85 98.5233C257.587 97.2452 258.951 96.4579 260.427 96.4579L284.573 96.4579C286.049 96.4579 287.413 97.2452 288.15 98.5233L300.224 119.434C300.961 120.713 300.961 122.287 300.224 123.565L288.15 144.476C287.413 145.755 286.049 146.542 284.573 146.542L260.427 146.542C258.951 146.542 257.587 145.755 256.85 144.476L244.776 123.565C244.039 122.287 244.039 120.713 244.776 119.434L256.85 98.5233Z" fill="url(#paint11_radial_304_2)" fill-opacity="0.2"/>
<path d="M256.999 98.6094C257.706 97.3845 259.013 96.63 260.427 96.63L284.573 96.63C285.987 96.63 287.294 97.3845 288.001 98.6094L300.074 119.521C300.782 120.745 300.782 122.254 300.074 123.479L288.001 144.39C287.294 145.615 285.987 146.37 284.573 146.37L260.427 146.37C259.013 146.37 257.706 145.615 256.999 144.39L244.926 123.479C244.218 122.254 244.218 120.745 244.926 119.521L256.999 98.6094Z" stroke="#7391FF" stroke-width="0.344235"/>
</g>
<path d="M269.929 122.231H274.756L272.342 116.422L269.929 122.231ZM272.342 107.258L259.18 111.977L261.194 129.461L272.342 135.67L283.49 129.461L285.505 111.977L272.342 107.258ZM280.589 128.935H277.511L275.851 124.787H268.846L267.186 128.935H264.101L272.342 110.398L280.589 128.935Z" fill="white"/>
<g filter="url(#filter12_b_304_2)">
<path d="M209.85 124.523C210.587 123.245 211.951 122.458 213.427 122.458L237.573 122.458C239.049 122.458 240.413 123.245 241.15 124.523L253.224 145.435C253.961 146.713 253.961 148.287 253.224 149.565L241.15 170.477C240.413 171.755 239.049 172.542 237.573 172.542L213.427 172.542C211.951 172.542 210.587 171.755 209.85 170.477L197.776 149.565C197.039 148.287 197.039 146.713 197.776 145.435L209.85 124.523Z" fill="url(#paint12_radial_304_2)" fill-opacity="0.2"/>
<path d="M209.999 124.609C210.706 123.385 212.013 122.63 213.427 122.63L237.573 122.63C238.987 122.63 240.294 123.385 241.001 124.609L253.074 145.521C253.782 146.745 253.782 148.255 253.074 149.479L241.001 170.391C240.294 171.615 238.987 172.37 237.573 172.37L213.427 172.37C212.013 172.37 210.706 171.615 209.999 170.391L197.926 149.479C197.218 148.255 197.218 146.745 197.926 145.521L209.999 124.609Z" stroke="#7391FF" stroke-width="0.344235"/>
</g>
<path d="M225.866 137.148C237.578 137.148 246.583 142.081 246.583 147.5C246.583 152.919 237.571 157.852 225.866 157.852C214.154 157.852 205.148 152.919 205.148 147.5C205.148 142.081 214.161 137.148 225.866 137.148ZM225.866 136C213.792 136 204 141.145 204 147.5C204 153.855 213.792 159 225.866 159C237.94 159 247.731 153.855 247.731 147.5C247.731 141.145 237.94 136 225.866 136ZM218.91 146.578C218.37 149.345 216.463 149.058 214.12 149.058L215.056 144.234C217.652 144.234 219.415 143.954 218.91 146.578ZM210.655 153.944H213.163L213.758 150.882C216.566 150.882 218.308 151.087 219.921 149.577C221.704 147.937 222.169 145.02 220.898 143.557C220.235 142.792 219.169 142.416 217.721 142.416H212.89L210.655 153.944ZM223.344 139.348H225.838L225.244 142.409C227.396 142.409 229.392 142.252 230.355 143.141C231.366 144.07 230.881 145.259 229.788 150.869H227.26C228.312 145.443 228.51 144.992 228.127 144.582C227.758 144.186 226.918 144.268 224.889 144.268L223.604 150.869H221.11L223.344 139.348ZM238.507 146.578C237.96 149.386 235.999 149.058 233.717 149.058L234.653 144.234C237.263 144.234 239.012 143.954 238.507 146.578ZM230.253 153.944H232.767L233.362 150.882C236.313 150.882 237.947 151.053 239.525 149.577C241.308 147.937 241.773 145.02 240.502 143.557C239.839 142.792 238.773 142.416 237.325 142.416H232.494L230.253 153.944Z" fill="white"/>
<defs>
<filter id="filter0_b_304_2" x="241.78" y="39.0155" width="63.4394" height="56.9687" filterUnits="userSpaceOnUse" color-interpolation-filters="sRGB">
<feFlood flood-opacity="0" result="BackgroundImageFix"/>
<feGaussianBlur in="BackgroundImageFix" stdDeviation="1.72117"/>
<feComposite in2="SourceAlpha" operator="in" result="effect1_backgroundBlur_304_2"/>
<feBlend mode="normal" in="SourceGraphic" in2="effect1_backgroundBlur_304_2" result="shape"/>
</filter>
<filter id="filter1_b_304_2" x="101.78" y="65.0155" width="63.4394" height="56.9687" filterUnits="userSpaceOnUse" color-interpolation-filters="sRGB">
<feFlood flood-opacity="0" result="BackgroundImageFix"/>
<feGaussianBlur in="BackgroundImageFix" stdDeviation="1.72117"/>
<feComposite in2="SourceAlpha" operator="in" result="effect1_backgroundBlur_304_2"/>
<feBlend mode="normal" in="SourceGraphic" in2="effect1_backgroundBlur_304_2" result="shape"/>
</filter>
<filter id="filter2_b_304_2" x="54.7803" y="93.0155" width="63.4394" height="56.9687" filterUnits="userSpaceOnUse" color-interpolation-filters="sRGB">
<feFlood flood-opacity="0" result="BackgroundImageFix"/>
<feGaussianBlur in="BackgroundImageFix" stdDeviation="1.72117"/>
<feComposite in2="SourceAlpha" operator="in" result="effect1_backgroundBlur_304_2"/>
<feBlend mode="normal" in="SourceGraphic" in2="effect1_backgroundBlur_304_2" result="shape"/>
</filter>
<filter id="filter3_b_304_2" x="6.71686" y="10.7092" width="65.5663" height="59.5819" filterUnits="userSpaceOnUse" color-interpolation-filters="sRGB">
<feFlood flood-opacity="0" result="BackgroundImageFix"/>
<feGaussianBlur in="BackgroundImageFix" stdDeviation="2.37448"/>
<feComposite in2="SourceAlpha" operator="in" result="effect1_backgroundBlur_304_2"/>
<feBlend mode="normal" in="SourceGraphic" in2="effect1_backgroundBlur_304_2" result="shape"/>
</filter>
<filter id="filter4_b_304_2" x="54.7803" y="40.0155" width="63.4394" height="56.9687" filterUnits="userSpaceOnUse" color-interpolation-filters="sRGB">
<feFlood flood-opacity="0" result="BackgroundImageFix"/>
<feGaussianBlur in="BackgroundImageFix" stdDeviation="1.72117"/>
<feComposite in2="SourceAlpha" operator="in" result="effect1_backgroundBlur_304_2"/>
<feBlend mode="normal" in="SourceGraphic" in2="effect1_backgroundBlur_304_2" result="shape"/>
</filter>
<filter id="filter5_b_304_2" x="101.78" y="12.0155" width="63.4394" height="56.9687" filterUnits="userSpaceOnUse" color-interpolation-filters="sRGB">
<feFlood flood-opacity="0" result="BackgroundImageFix"/>
<feGaussianBlur in="BackgroundImageFix" stdDeviation="1.72117"/>
<feComposite in2="SourceAlpha" operator="in" result="effect1_backgroundBlur_304_2"/>
<feBlend mode="normal" in="SourceGraphic" in2="effect1_backgroundBlur_304_2" result="shape"/>
</filter>
<filter id="filter6_b_304_2" x="193.78" y="11.0155" width="63.4394" height="56.9687" filterUnits="userSpaceOnUse" color-interpolation-filters="sRGB">
<feFlood flood-opacity="0" result="BackgroundImageFix"/>
<feGaussianBlur in="BackgroundImageFix" stdDeviation="1.72117"/>
<feComposite in2="SourceAlpha" operator="in" result="effect1_backgroundBlur_304_2"/>
<feBlend mode="normal" in="SourceGraphic" in2="effect1_backgroundBlur_304_2" result="shape"/>
</filter>
<filter id="filter7_b_304_2" x="147.78" y="38.0155" width="63.4394" height="56.9687" filterUnits="userSpaceOnUse" color-interpolation-filters="sRGB">
<feFlood flood-opacity="0" result="BackgroundImageFix"/>
<feGaussianBlur in="BackgroundImageFix" stdDeviation="1.72117"/>
<feComposite in2="SourceAlpha" operator="in" result="effect1_backgroundBlur_304_2"/>
<feBlend mode="normal" in="SourceGraphic" in2="effect1_backgroundBlur_304_2" result="shape"/>
</filter>
<filter id="filter8_b_304_2" x="194.78" y="65.0154" width="63.4394" height="56.9687" filterUnits="userSpaceOnUse" color-interpolation-filters="sRGB">
<feFlood flood-opacity="0" result="BackgroundImageFix"/>
<feGaussianBlur in="BackgroundImageFix" stdDeviation="1.72117"/>
<feComposite in2="SourceAlpha" operator="in" result="effect1_backgroundBlur_304_2"/>
<feBlend mode="normal" in="SourceGraphic" in2="effect1_backgroundBlur_304_2" result="shape"/>
</filter>
<filter id="filter9_b_304_2" x="7.78031" y="65.0155" width="63.4394" height="56.9687" filterUnits="userSpaceOnUse" color-interpolation-filters="sRGB">
<feFlood flood-opacity="0" result="BackgroundImageFix"/>
<feGaussianBlur in="BackgroundImageFix" stdDeviation="1.72117"/>
<feComposite in2="SourceAlpha" operator="in" result="effect1_backgroundBlur_304_2"/>
<feBlend mode="normal" in="SourceGraphic" in2="effect1_backgroundBlur_304_2" result="shape"/>
</filter>
<filter id="filter10_b_304_2" x="147.78" y="91.0155" width="63.4394" height="56.9687" filterUnits="userSpaceOnUse" color-interpolation-filters="sRGB">
<feFlood flood-opacity="0" result="BackgroundImageFix"/>
<feGaussianBlur in="BackgroundImageFix" stdDeviation="1.72117"/>
<feComposite in2="SourceAlpha" operator="in" result="effect1_backgroundBlur_304_2"/>
<feBlend mode="normal" in="SourceGraphic" in2="effect1_backgroundBlur_304_2" result="shape"/>
</filter>
<filter id="filter11_b_304_2" x="240.78" y="93.0155" width="63.4394" height="56.9687" filterUnits="userSpaceOnUse" color-interpolation-filters="sRGB">
<feFlood flood-opacity="0" result="BackgroundImageFix"/>
<feGaussianBlur in="BackgroundImageFix" stdDeviation="1.72117"/>
<feComposite in2="SourceAlpha" operator="in" result="effect1_backgroundBlur_304_2"/>
<feBlend mode="normal" in="SourceGraphic" in2="effect1_backgroundBlur_304_2" result="shape"/>
</filter>
<filter id="filter12_b_304_2" x="193.78" y="119.016" width="63.4394" height="56.9687" filterUnits="userSpaceOnUse" color-interpolation-filters="sRGB">
<feFlood flood-opacity="0" result="BackgroundImageFix"/>
<feGaussianBlur in="BackgroundImageFix" stdDeviation="1.72117"/>
<feComposite in2="SourceAlpha" operator="in" result="effect1_backgroundBlur_304_2"/>
<feBlend mode="normal" in="SourceGraphic" in2="effect1_backgroundBlur_304_2" result="shape"/>
</filter>
<radialGradient id="paint0_radial_304_2" cx="0" cy="0" r="1" gradientUnits="userSpaceOnUse" gradientTransform="translate(262.494 89.499) rotate(-33.222) scale(40.3054 46.6854)">
<stop stop-color="#914DFF"/>
<stop offset="0.976" stop-color="#4522AA"/>
</radialGradient>
<radialGradient id="paint1_radial_304_2" cx="0" cy="0" r="1" gradientUnits="userSpaceOnUse" gradientTransform="translate(122.494 115.499) rotate(-33.222) scale(40.3054 46.6854)">
<stop stop-color="#914DFF"/>
<stop offset="0.976" stop-color="#4522AA"/>
</radialGradient>
<radialGradient id="paint2_radial_304_2" cx="0" cy="0" r="1" gradientUnits="userSpaceOnUse" gradientTransform="translate(75.4938 143.499) rotate(-33.222) scale(40.3054 46.6854)">
<stop stop-color="#914DFF"/>
<stop offset="0.976" stop-color="#4522AA"/>
</radialGradient>
<radialGradient id="paint3_radial_304_2" cx="0" cy="0" r="1" gradientUnits="userSpaceOnUse" gradientTransform="translate(28.4938 62.4992) rotate(-33.222) scale(40.3054 46.6854)">
<stop stop-color="#914DFF"/>
<stop offset="0.976" stop-color="#4522AA"/>
</radialGradient>
<radialGradient id="paint4_radial_304_2" cx="0" cy="0" r="1" gradientUnits="userSpaceOnUse" gradientTransform="translate(75.4938 90.499) rotate(-33.222) scale(40.3054 46.6854)">
<stop stop-color="#914DFF"/>
<stop offset="0.976" stop-color="#4522AA"/>
</radialGradient>
<radialGradient id="paint5_radial_304_2" cx="0" cy="0" r="1" gradientUnits="userSpaceOnUse" gradientTransform="translate(122.494 62.499) rotate(-33.222) scale(40.3054 46.6854)">
<stop stop-color="#914DFF"/>
<stop offset="0.976" stop-color="#4522AA"/>
</radialGradient>
<radialGradient id="paint6_radial_304_2" cx="0" cy="0" r="1" gradientUnits="userSpaceOnUse" gradientTransform="translate(214.494 61.499) rotate(-33.222) scale(40.3054 46.6854)">
<stop stop-color="#914DFF"/>
<stop offset="0.976" stop-color="#4522AA"/>
</radialGradient>
<radialGradient id="paint7_radial_304_2" cx="0" cy="0" r="1" gradientUnits="userSpaceOnUse" gradientTransform="translate(168.494 88.499) rotate(-33.222) scale(40.3054 46.6854)">
<stop stop-color="#914DFF"/>
<stop offset="0.976" stop-color="#4522AA"/>
</radialGradient>
<radialGradient id="paint8_radial_304_2" cx="0" cy="0" r="1" gradientUnits="userSpaceOnUse" gradientTransform="translate(215.494 115.499) rotate(-33.222) scale(40.3054 46.6854)">
<stop stop-color="#914DFF"/>
<stop offset="0.976" stop-color="#4522AA"/>
</radialGradient>
<radialGradient id="paint9_radial_304_2" cx="0" cy="0" r="1" gradientUnits="userSpaceOnUse" gradientTransform="translate(28.4938 115.499) rotate(-33.222) scale(40.3054 46.6854)">
<stop stop-color="#914DFF"/>
<stop offset="0.976" stop-color="#4522AA"/>
</radialGradient>
<radialGradient id="paint10_radial_304_2" cx="0" cy="0" r="1" gradientUnits="userSpaceOnUse" gradientTransform="translate(168.494 141.499) rotate(-33.222) scale(40.3054 46.6854)">
<stop stop-color="#914DFF"/>
<stop offset="0.976" stop-color="#4522AA"/>
</radialGradient>
<radialGradient id="paint11_radial_304_2" cx="0" cy="0" r="1" gradientUnits="userSpaceOnUse" gradientTransform="translate(261.494 143.499) rotate(-33.222) scale(40.3054 46.6854)">
<stop stop-color="#914DFF"/>
<stop offset="0.976" stop-color="#4522AA"/>
</radialGradient>
<radialGradient id="paint12_radial_304_2" cx="0" cy="0" r="1" gradientUnits="userSpaceOnUse" gradientTransform="translate(214.494 169.499) rotate(-33.222) scale(40.3054 46.6854)">
<stop stop-color="#914DFF"/>
<stop offset="0.976" stop-color="#4522AA"/>
</radialGradient>
</defs>
</svg>
