<svg width="398" height="436" viewBox="0 0 398 436" fill="none" xmlns="http://www.w3.org/2000/svg">
<g filter="url(#filter0_b_50_62)">
<path d="M127.61 274.52C129.464 271.309 132.89 269.331 136.598 269.331L177.275 269.331C180.983 269.331 184.409 271.309 186.263 274.52L206.601 309.747C208.455 312.958 208.455 316.915 206.601 320.126L186.263 355.353C184.409 358.564 180.983 360.542 177.275 360.542L136.598 360.542C132.89 360.542 129.464 358.564 127.61 355.353L107.271 320.126C105.417 316.915 105.417 312.958 107.271 309.747L127.61 274.52Z" fill="url(#paint0_radial_50_62)" fill-opacity="0.2"/>
<path d="M127.984 274.736C129.761 271.659 133.044 269.763 136.598 269.763L177.275 269.763C180.828 269.763 184.112 271.659 185.888 274.736L206.227 309.963C208.004 313.041 208.004 316.832 206.227 319.909L185.888 355.137C184.112 358.214 180.828 360.11 177.275 360.11L136.598 360.11C133.044 360.11 129.761 358.214 127.984 355.137L107.646 319.909C105.869 316.832 105.869 313.041 107.646 309.963L127.984 274.736Z" stroke="#7391FF" stroke-width="0.864868"/>
</g>
<path d="M121.284 306.87L124.961 317.992H125.106L128.777 306.87H131.592L126.61 321H123.45L118.476 306.87H121.284ZM141.132 310.754C141.067 310.152 140.796 309.683 140.318 309.347C139.844 309.011 139.228 308.843 138.469 308.843C137.935 308.843 137.477 308.924 137.096 309.085C136.714 309.246 136.422 309.464 136.219 309.74C136.017 310.016 135.914 310.331 135.909 310.685C135.909 310.98 135.976 311.235 136.109 311.451C136.247 311.667 136.433 311.851 136.668 312.003C136.902 312.15 137.162 312.275 137.448 312.376C137.733 312.477 138.02 312.562 138.31 312.631L139.635 312.962C140.168 313.086 140.681 313.254 141.173 313.466C141.67 313.677 142.114 313.944 142.505 314.266C142.9 314.588 143.213 314.977 143.443 315.432C143.673 315.888 143.788 316.421 143.788 317.033C143.788 317.861 143.576 318.59 143.153 319.22C142.73 319.846 142.118 320.335 141.318 320.69C140.522 321.039 139.559 321.214 138.427 321.214C137.328 321.214 136.374 321.044 135.564 320.703C134.759 320.363 134.129 319.866 133.674 319.213C133.223 318.56 132.979 317.764 132.942 316.826H135.461C135.497 317.318 135.649 317.727 135.916 318.054C136.183 318.381 136.53 318.624 136.958 318.785C137.39 318.946 137.873 319.027 138.407 319.027C138.963 319.027 139.451 318.944 139.869 318.778C140.292 318.608 140.624 318.374 140.863 318.075C141.102 317.771 141.224 317.417 141.228 317.012C141.224 316.644 141.116 316.341 140.904 316.101C140.693 315.858 140.396 315.655 140.014 315.494C139.637 315.329 139.195 315.182 138.689 315.053L137.082 314.639C135.918 314.34 134.998 313.887 134.322 313.28C133.651 312.668 133.315 311.856 133.315 310.844C133.315 310.012 133.54 309.283 133.991 308.657C134.446 308.032 135.065 307.546 135.847 307.201C136.629 306.852 137.514 306.677 138.503 306.677C139.506 306.677 140.384 306.852 141.139 307.201C141.898 307.546 142.493 308.027 142.926 308.643C143.358 309.255 143.581 309.959 143.595 310.754H141.132ZM155.401 321.207C154.343 321.207 153.435 320.975 152.676 320.51C151.922 320.046 151.34 319.404 150.931 318.585C150.526 317.762 150.323 316.814 150.323 315.743C150.323 314.666 150.53 313.717 150.944 312.893C151.358 312.065 151.943 311.421 152.697 310.961C153.456 310.497 154.353 310.265 155.388 310.265C156.248 310.265 157.009 310.423 157.671 310.741C158.338 311.053 158.869 311.497 159.265 312.072C159.661 312.643 159.886 313.31 159.941 314.073H157.554C157.457 313.562 157.227 313.137 156.864 312.797C156.505 312.452 156.025 312.279 155.422 312.279C154.912 312.279 154.463 312.417 154.077 312.693C153.69 312.965 153.389 313.356 153.173 313.866C152.961 314.377 152.856 314.988 152.856 315.701C152.856 316.423 152.961 317.044 153.173 317.564C153.384 318.079 153.681 318.477 154.063 318.758C154.449 319.034 154.902 319.172 155.422 319.172C155.79 319.172 156.119 319.103 156.409 318.965C156.703 318.822 156.949 318.617 157.147 318.351C157.345 318.084 157.48 317.76 157.554 317.378H159.941C159.881 318.128 159.661 318.792 159.279 319.372C158.897 319.947 158.377 320.397 157.72 320.724C157.062 321.046 156.289 321.207 155.401 321.207ZM166.615 321.207C165.58 321.207 164.683 320.979 163.924 320.524C163.165 320.069 162.576 319.432 162.158 318.613C161.744 317.794 161.537 316.837 161.537 315.743C161.537 314.648 161.744 313.689 162.158 312.866C162.576 312.042 163.165 311.403 163.924 310.948C164.683 310.492 165.58 310.265 166.615 310.265C167.649 310.265 168.546 310.492 169.305 310.948C170.064 311.403 170.651 312.042 171.065 312.866C171.483 313.689 171.692 314.648 171.692 315.743C171.692 316.837 171.483 317.794 171.065 318.613C170.651 319.432 170.064 320.069 169.305 320.524C168.546 320.979 167.649 321.207 166.615 321.207ZM166.628 319.206C167.189 319.206 167.659 319.052 168.036 318.744C168.413 318.431 168.694 318.013 168.878 317.488C169.066 316.964 169.16 316.38 169.16 315.736C169.16 315.087 169.066 314.501 168.878 313.976C168.694 313.448 168.413 313.027 168.036 312.714C167.659 312.401 167.189 312.245 166.628 312.245C166.053 312.245 165.575 312.401 165.193 312.714C164.816 313.027 164.533 313.448 164.345 313.976C164.161 314.501 164.069 315.087 164.069 315.736C164.069 316.38 164.161 316.964 164.345 317.488C164.533 318.013 164.816 318.431 165.193 318.744C165.575 319.052 166.053 319.206 166.628 319.206ZM177.745 321.186C176.912 321.186 176.167 320.972 175.51 320.545C174.852 320.117 174.332 319.496 173.95 318.682C173.569 317.868 173.378 316.879 173.378 315.715C173.378 314.538 173.571 313.544 173.957 312.735C174.348 311.92 174.875 311.306 175.537 310.892C176.199 310.474 176.938 310.265 177.752 310.265C178.373 310.265 178.883 310.37 179.283 310.582C179.684 310.789 180.001 311.04 180.236 311.334C180.47 311.624 180.652 311.897 180.781 312.155H180.884V306.87H183.389V321H180.932V319.33H180.781C180.652 319.588 180.466 319.862 180.222 320.151C179.978 320.437 179.656 320.68 179.256 320.883C178.856 321.085 178.352 321.186 177.745 321.186ZM178.442 319.137C178.971 319.137 179.421 318.995 179.794 318.709C180.167 318.42 180.449 318.017 180.643 317.502C180.836 316.987 180.932 316.387 180.932 315.701C180.932 315.016 180.836 314.42 180.643 313.914C180.454 313.408 180.173 313.015 179.801 312.735C179.433 312.454 178.98 312.314 178.442 312.314C177.885 312.314 177.421 312.459 177.048 312.748C176.676 313.038 176.395 313.438 176.206 313.949C176.018 314.459 175.923 315.044 175.923 315.701C175.923 316.364 176.018 316.955 176.206 317.474C176.4 317.99 176.682 318.397 177.055 318.696C177.432 318.99 177.894 319.137 178.442 319.137ZM190.742 321.207C189.679 321.207 188.761 320.986 187.989 320.545C187.221 320.098 186.63 319.468 186.216 318.654C185.802 317.835 185.595 316.872 185.595 315.763C185.595 314.673 185.802 313.717 186.216 312.893C186.634 312.065 187.218 311.421 187.968 310.961C188.718 310.497 189.599 310.265 190.61 310.265C191.264 310.265 191.88 310.37 192.46 310.582C193.044 310.789 193.559 311.111 194.005 311.548C194.456 311.985 194.81 312.541 195.067 313.218C195.325 313.889 195.454 314.689 195.454 315.619V316.384H186.768V314.701H193.06C193.055 314.223 192.952 313.797 192.749 313.425C192.547 313.047 192.264 312.751 191.901 312.534C191.542 312.318 191.123 312.21 190.645 312.21C190.134 312.21 189.686 312.334 189.3 312.583C188.913 312.827 188.612 313.149 188.396 313.549C188.184 313.944 188.076 314.379 188.072 314.853V316.322C188.072 316.939 188.184 317.468 188.41 317.909C188.635 318.346 188.95 318.682 189.355 318.916C189.76 319.146 190.233 319.261 190.776 319.261C191.139 319.261 191.468 319.211 191.763 319.11C192.057 319.004 192.312 318.85 192.529 318.647C192.745 318.445 192.908 318.194 193.018 317.895L195.35 318.157C195.203 318.774 194.923 319.312 194.509 319.772C194.099 320.227 193.575 320.581 192.936 320.834C192.296 321.083 191.565 321.207 190.742 321.207Z" fill="white"/>
<g filter="url(#filter1_b_50_62)">
<path d="M42.6098 227.52C44.4637 224.309 47.8899 222.331 51.5978 222.331L92.2748 222.331C95.9827 222.331 99.4089 224.309 101.263 227.52L121.601 262.747C123.455 265.958 123.455 269.915 121.601 273.126L101.263 308.353C99.4089 311.564 95.9827 313.542 92.2748 313.542L51.5978 313.542C47.8899 313.542 44.4637 311.564 42.6098 308.353L22.2713 273.126C20.4173 269.915 20.4173 265.958 22.2713 262.747L42.6098 227.52Z" fill="url(#paint1_radial_50_62)" fill-opacity="0.2"/>
<path d="M42.9843 227.736C44.761 224.659 48.0444 222.763 51.5978 222.763L92.2748 222.763C95.8282 222.763 99.1116 224.659 100.888 227.736L121.227 262.963C123.004 266.041 123.004 269.832 121.227 272.909L100.888 308.137C99.1116 311.214 95.8282 313.11 92.2748 313.11L51.5978 313.11C48.0444 313.11 44.761 311.214 42.9843 308.137L22.6458 272.909C20.8691 269.832 20.8691 266.041 22.6458 262.963L42.9843 227.736Z" stroke="#7391FF" stroke-width="0.864868"/>
</g>
<path d="M54.6601 263.95C54.6309 263.644 54.5629 263.375 54.456 263.142C54.3491 262.903 54.2034 262.702 54.0188 262.537C53.8342 262.371 53.6058 262.248 53.3337 262.165C53.0617 262.078 52.7459 262.034 52.3864 262.034C51.6673 262.034 51.0017 262.209 50.3896 262.559C49.7774 262.908 49.26 263.418 48.8373 264.089C48.4146 264.755 48.1256 265.563 47.9701 266.516C47.8146 267.473 47.8098 268.289 47.9555 268.964C48.1061 269.64 48.4074 270.155 48.8592 270.509C49.311 270.864 49.9086 271.041 50.6519 271.041C51.3175 271.041 51.9054 270.934 52.4155 270.721C52.9256 270.502 53.3386 270.193 53.6544 269.795C53.975 269.397 54.1767 268.928 54.2593 268.389L54.9224 268.469H51.2932L51.7305 265.838H58.1581L57.8302 267.813C57.6115 269.149 57.1403 270.293 56.4164 271.245C55.6973 272.198 54.7985 272.929 53.72 273.439C52.6463 273.949 51.4681 274.204 50.1855 274.204C48.7669 274.204 47.5693 273.896 46.5928 273.279C45.6162 272.662 44.9215 271.782 44.5085 270.64C44.0956 269.494 44.0178 268.134 44.2753 266.559C44.4794 265.335 44.8413 264.249 45.3612 263.302C45.8859 262.35 46.5272 261.543 47.2851 260.882C48.0478 260.222 48.8908 259.721 49.8139 259.381C50.7369 259.041 51.6965 258.871 52.6924 258.871C53.5524 258.871 54.3346 258.995 55.039 259.243C55.7435 259.49 56.3459 259.84 56.8463 260.292C57.3468 260.744 57.7233 261.281 57.9759 261.903C58.2334 262.525 58.3452 263.207 58.3111 263.95H54.6601ZM68.7159 263.579C68.7548 263.03 68.6091 262.605 68.2787 262.303C67.9532 262.002 67.4382 261.852 66.7337 261.852C66.2673 261.852 65.8689 261.912 65.5386 262.034C65.2082 262.15 64.9483 262.316 64.7588 262.529C64.5693 262.738 64.4503 262.981 64.4017 263.258C64.358 263.477 64.3701 263.671 64.4381 263.841C64.5062 264.011 64.6252 264.162 64.7952 264.293C64.9701 264.424 65.1863 264.538 65.4438 264.635C65.7062 264.733 66.0001 264.818 66.3256 264.891L67.5499 265.182C68.2593 265.342 68.8738 265.556 69.3937 265.823C69.9184 266.086 70.3435 266.404 70.669 266.778C70.9945 267.147 71.218 267.572 71.3395 268.053C71.4609 268.534 71.4706 269.074 71.3686 269.671C71.2131 270.614 70.8415 271.423 70.2536 272.098C69.6706 272.773 68.9078 273.291 67.9653 273.65C67.0277 274.01 65.937 274.189 64.6932 274.189C63.4495 274.189 62.3928 274.002 61.5231 273.628C60.6583 273.249 60.0316 272.679 59.6429 271.916C59.2543 271.153 59.1498 270.191 59.3296 269.03H62.7766C62.7231 269.511 62.7839 269.912 62.9588 270.232C63.1385 270.553 63.4155 270.796 63.7896 270.961C64.1637 271.126 64.6155 271.209 65.145 271.209C65.6309 271.209 66.056 271.143 66.4204 271.012C66.7896 270.881 67.0835 270.699 67.3022 270.466C67.5256 270.232 67.6617 269.965 67.7103 269.664C67.7588 269.387 67.7127 269.146 67.5718 268.942C67.4358 268.738 67.2026 268.561 66.8722 268.41C66.5467 268.26 66.1191 268.124 65.5896 268.002L64.0956 267.638C62.8616 267.337 61.9264 266.856 61.2899 266.195C60.6583 265.534 60.4349 264.638 60.6195 263.506C60.7749 262.578 61.1588 261.767 61.7709 261.072C62.3879 260.377 63.1677 259.838 64.1102 259.454C65.0576 259.065 66.0997 258.871 67.2366 258.871C68.3929 258.871 69.3645 259.068 70.1516 259.461C70.9435 259.85 71.5144 260.399 71.8642 261.108C72.2188 261.813 72.3208 262.636 72.1702 263.579H68.7159ZM75.2438 274H71.3668L78.8803 259.075H83.6827L86.2407 274H82.3637L80.724 262.835H80.6074L75.2438 274ZM75.7102 268.126H83.8139L83.3475 270.866H75.2438L75.7102 268.126ZM87.8476 274L90.3253 259.075H96.4906C97.608 259.075 98.5384 259.291 99.2817 259.724C100.025 260.156 100.552 260.761 100.863 261.538C101.174 262.316 101.245 263.217 101.074 264.242C100.909 265.277 100.538 266.178 99.9595 266.946C99.3862 267.713 98.6477 268.308 97.7441 268.731C96.8404 269.154 95.8129 269.365 94.6614 269.365H90.8646L91.3383 266.523H94.472C95.021 266.523 95.4947 266.428 95.893 266.239C96.2963 266.049 96.6194 265.785 96.8623 265.444C97.1052 265.104 97.2655 264.704 97.3433 264.242C97.4161 263.78 97.387 263.382 97.2558 263.047C97.1246 262.707 96.889 262.444 96.5489 262.26C96.2137 262.075 95.7764 261.983 95.2372 261.983H93.459L91.4549 274H87.8476Z" fill="white"/>
<g filter="url(#filter2_b_50_62)">
<path d="M42.6098 31.5198C44.4637 28.3087 47.8899 26.3306 51.5978 26.3306L92.2748 26.3306C95.9827 26.3306 99.4089 28.3087 101.263 31.5198L121.601 66.7472C123.455 69.9583 123.455 73.9145 121.601 77.1256L101.263 112.353C99.4089 115.564 95.9827 117.542 92.2748 117.542L51.5978 117.542C47.8899 117.542 44.4637 115.564 42.6098 112.353L22.2713 77.1256C20.4173 73.9145 20.4173 69.9583 22.2713 66.7472L42.6098 31.5198Z" fill="url(#paint2_radial_50_62)" fill-opacity="0.2"/>
<path d="M42.9843 31.736C44.761 28.6587 48.0444 26.7631 51.5978 26.7631L92.2748 26.7631C95.8282 26.7631 99.1116 28.6587 100.888 31.736L121.227 66.9634C123.004 70.0407 123.004 73.8321 121.227 76.9094L100.888 112.137C99.1116 115.214 95.8282 117.11 92.2748 117.11L51.5978 117.11C48.0444 117.11 44.761 115.214 42.9843 112.137L22.6458 76.9094C20.8691 73.8321 20.8691 70.0407 22.6458 66.9634L42.9843 31.736Z" stroke="#7391FF" stroke-width="0.864868"/>
</g>
<path d="M50 53L53.999 98.3521L71.9427 104.333L90.001 98.3521L94 53H50ZM85.3146 67.6552H64.2542L64.724 73.3156H84.8448L83.2865 90.3198L72.0688 93.4135V93.4479H71.9427L60.6333 90.3198L59.9458 81.6344H65.4115L65.8125 86L71.9427 87.6615L78.0958 86L78.7833 78.8729H59.6594L58.1927 62.1896H85.8188L85.3146 67.6552Z" fill="white"/>
<g filter="url(#filter3_b_50_62)">
<path d="M127.61 79.5198C129.464 76.3087 132.89 74.3306 136.598 74.3306L177.275 74.3306C180.983 74.3306 184.409 76.3087 186.263 79.5198L206.601 114.747C208.455 117.958 208.455 121.915 206.601 125.126L186.263 160.353C184.409 163.564 180.983 165.542 177.275 165.542L136.598 165.542C132.89 165.542 129.464 163.564 127.61 160.353L107.271 125.126C105.417 121.915 105.417 117.958 107.271 114.747L127.61 79.5198Z" fill="url(#paint3_radial_50_62)" fill-opacity="0.2"/>
<path d="M127.984 79.736C129.761 76.6587 133.044 74.7631 136.598 74.7631L177.275 74.7631C180.828 74.7631 184.112 76.6587 185.888 79.736L206.227 114.963C208.004 118.041 208.004 121.832 206.227 124.909L185.888 160.137C184.112 163.214 180.828 165.11 177.275 165.11L136.598 165.11C133.044 165.11 129.761 163.214 127.984 160.137L107.646 124.909C105.869 121.832 105.869 118.041 107.646 114.963L127.984 79.736Z" stroke="#7391FF" stroke-width="0.864868"/>
</g>
<path d="M133 99L136.999 144.058L155 150L173.001 144.058L177 99H133ZM168.876 108.107L168.326 113.492L155.115 119.104L155.08 119.115H167.856L166.39 135.804L155.138 139.071L143.817 135.747L143.083 127.335H148.686L149.053 131.695L155.08 133.209L161.348 131.456L161.772 124.443L142.717 124.386V124.375L142.694 124.386L142.281 119.115L155.126 113.799L155.871 113.492H141.789L141.124 108.107H168.876Z" fill="white"/>
<g filter="url(#filter4_b_50_62)">
<path d="M211.61 32.5198C213.464 29.3087 216.89 27.3306 220.598 27.3306L261.275 27.3306C264.983 27.3306 268.409 29.3087 270.263 32.5198L290.601 67.7472C292.455 70.9583 292.455 74.9145 290.601 78.1256L270.263 113.353C268.409 116.564 264.983 118.542 261.275 118.542L220.598 118.542C216.89 118.542 213.464 116.564 211.61 113.353L191.271 78.1256C189.417 74.9145 189.417 70.9583 191.271 67.7472L211.61 32.5198Z" fill="url(#paint4_radial_50_62)" fill-opacity="0.2"/>
<path d="M211.984 32.736C213.761 29.6587 217.044 27.7631 220.598 27.7631L261.275 27.7631C264.828 27.7631 268.112 29.6587 269.888 32.736L290.227 67.9634C292.004 71.0407 292.004 74.8321 290.227 77.9094L269.888 113.137C268.112 116.214 264.828 118.11 261.275 118.11L220.598 118.11C217.044 118.11 213.761 116.214 211.984 113.137L191.646 77.9094C189.869 74.8321 189.869 71.0407 191.646 67.9634L211.984 32.736Z" stroke="#7391FF" stroke-width="0.864868"/>
</g>
<path d="M241.439 85.8006C241.376 85.9131 241.407 85.8631 241.439 85.8006V85.8006ZM267.388 76.7389C265.293 76.7382 263.226 77.2193 261.346 78.145C260.732 76.9055 260.097 75.8223 259.992 75.0099C259.867 74.062 259.732 73.4996 259.878 72.3747C260.024 71.2497 260.68 69.6561 260.669 69.5416C260.659 69.427 260.524 68.8541 259.18 68.8437C257.836 68.8333 256.68 69.1041 256.546 69.4582C256.309 70.1054 256.124 70.7707 255.994 71.4476C255.754 72.6663 253.308 77.0201 251.922 79.2908C251.464 78.4054 251.079 77.6242 250.995 76.9993C250.87 76.0514 250.735 75.489 250.881 74.3641C251.026 73.2392 251.683 71.6455 251.672 71.531C251.662 71.4164 251.526 70.8435 250.184 70.8331C248.841 70.8227 247.684 71.0935 247.549 71.4476C247.413 71.8018 247.267 72.635 246.997 73.4371C246.726 74.2391 243.467 81.4885 242.614 83.3738C242.176 84.332 241.801 85.1028 241.53 85.6236C241.489 85.7069 241.457 85.759 241.437 85.8006C241.468 85.7486 241.489 85.6965 241.489 85.7173C241.26 86.1652 241.124 86.4152 241.124 86.4152V86.4256C240.947 86.7589 240.749 87.061 240.655 87.061C240.593 87.061 240.458 86.186 240.687 84.9882C241.176 82.4676 242.332 78.5512 242.322 78.4158C242.312 78.3429 242.541 77.6659 241.562 77.3013C240.614 76.9576 240.27 77.5305 240.187 77.5305C240.103 77.5305 240.041 77.7388 240.041 77.7388C240.041 77.7388 241.093 73.3225 238.021 73.3225C236.105 73.3225 233.438 75.4265 232.128 77.3326C231.305 77.7805 229.524 78.7491 227.649 79.7803C226.931 80.1761 226.191 80.5823 225.493 80.9677C225.441 80.9156 225.399 80.8635 225.347 80.8115C221.62 76.8326 214.737 74.0204 215.028 68.677C215.133 66.7293 215.81 61.6151 228.264 55.4073C238.471 50.3244 246.632 51.7201 248.037 54.824C250.058 59.2507 243.674 67.4896 233.074 68.677C229.033 69.1249 226.91 67.5625 226.379 66.9793C225.826 66.3647 225.743 66.3335 225.535 66.4481C225.191 66.6355 225.41 67.1772 225.535 67.5001C225.847 68.3229 227.149 69.7811 229.367 70.5102C231.315 71.1456 236.052 71.4997 241.779 69.2812C248.214 66.8022 253.223 59.8965 251.755 54.1157C250.259 48.2412 240.518 46.3143 231.307 49.5848C225.819 51.5326 219.884 54.5949 215.615 58.5841C210.543 63.3337 209.732 67.4688 210.065 69.1978C211.252 75.3327 219.707 79.3324 223.091 82.2905C222.925 82.3843 222.768 82.4676 222.623 82.5509C220.926 83.3946 214.479 86.7693 212.866 90.3315C211.043 94.3729 213.168 97.2685 214.563 97.6643C218.916 98.8725 223.372 96.6956 225.767 93.123C228.162 89.5503 227.871 84.8841 226.767 82.7592C226.757 82.728 226.736 82.7071 226.725 82.6759C227.163 82.4155 227.611 82.1551 228.059 81.8947C228.922 81.3843 229.766 80.9156 230.505 80.5094C230.089 81.6343 229.787 82.9884 229.63 84.9465C229.443 87.238 230.391 90.2065 231.62 91.3731C232.161 91.8835 232.817 91.8939 233.223 91.8939C234.66 91.8939 235.306 90.7065 236.024 89.2899C236.909 87.5609 237.69 85.5507 237.69 85.5507C237.69 85.5507 236.711 90.9877 239.388 90.9877C240.366 90.9877 241.345 89.7274 241.783 89.0816V89.092C241.783 89.092 241.804 89.0504 241.856 88.9671C241.961 88.8108 242.013 88.7171 242.013 88.7171V88.6858C242.408 88.0088 243.273 86.4568 244.574 83.8946C246.261 80.5823 247.875 76.4472 247.875 76.4472C248.031 77.3562 248.246 78.2539 248.52 79.1345C248.812 80.124 249.427 81.2073 249.916 82.2593C249.52 82.8009 249.281 83.1134 249.281 83.1134C249.282 83.1214 249.285 83.1288 249.291 83.1342C248.979 83.5508 248.625 83.9987 248.26 84.4362C246.928 86.0194 245.344 87.8317 245.135 88.3525C244.885 88.9671 244.948 89.4253 245.427 89.7795C245.781 90.0503 246.406 90.092 247.061 90.0399C248.259 89.9566 249.103 89.6649 249.509 89.4774C250.258 89.2089 250.966 88.8373 251.612 88.3734C252.914 87.4151 253.705 86.0402 253.633 84.2279C253.591 83.2279 253.268 82.228 252.872 81.2906C252.987 81.1239 253.112 80.9469 253.226 80.7698C255.288 77.7596 256.881 74.4557 256.881 74.4557C257.037 75.3647 257.253 76.2624 257.527 77.143C257.777 77.9867 258.265 78.9137 258.713 79.8199C256.777 81.3927 255.579 83.2154 255.163 84.4133C254.392 86.6318 254.996 87.6317 256.131 87.8609C256.642 87.9651 257.371 87.7255 257.912 87.4963C258.717 87.2284 259.475 86.8385 260.161 86.3402C261.463 85.3819 262.722 84.0383 262.639 82.2155C262.608 81.3927 262.379 80.5698 262.077 79.7782C263.712 79.0908 265.836 78.7158 268.544 79.0283C274.343 79.7053 275.479 83.33 275.26 84.8403C275.041 86.3506 273.823 87.1943 273.416 87.4443C273.01 87.6942 272.885 87.788 272.916 87.9755C272.968 88.2463 273.156 88.2359 273.5 88.1734C273.979 88.09 276.54 86.9443 276.655 84.1424C276.821 80.6011 273.416 76.7056 267.385 76.7368L267.388 76.7389ZM222.685 91.8106C220.77 93.9041 218.082 94.6958 216.927 94.0291C215.688 93.3084 216.177 90.2274 218.541 87.9963C219.978 86.6422 221.831 85.3923 223.06 84.6216C223.341 84.4549 223.747 84.2049 224.247 83.9029C224.331 83.8508 224.372 83.83 224.372 83.83C224.466 83.7675 224.57 83.7154 224.674 83.6529C225.538 86.8193 224.706 89.6108 222.685 91.8085V91.8106ZM236.68 82.2905C236.013 83.9258 234.608 88.0921 233.754 87.8734C233.025 87.6859 232.577 84.5091 233.608 81.3843C234.129 79.8115 235.233 77.9367 235.889 77.2076C236.94 76.0306 238.096 75.6556 238.367 76.1243C238.732 76.7389 237.096 81.2698 236.68 82.2905ZM248.241 87.8109C247.96 87.9567 247.7 88.0505 247.575 87.9776C247.481 87.9255 247.689 87.7276 247.689 87.7276C247.689 87.7276 249.137 86.1756 249.71 85.4673C250.043 85.0507 250.429 84.5612 250.844 84.0195C250.844 84.0716 250.855 84.1237 250.855 84.1862C250.841 86.0506 249.051 87.3109 248.238 87.8109H248.241ZM257.155 85.7798C256.947 85.634 256.978 85.1444 257.676 83.6237C257.947 83.03 258.571 82.0301 259.655 81.0719C259.778 81.4346 259.844 81.8139 259.853 82.1968C259.842 84.5403 258.165 85.4153 257.156 85.7798H257.155Z" fill="white"/>
<g filter="url(#filter5_b_50_62)">
<path d="M296.61 83.5198C298.464 80.3087 301.89 78.3306 305.598 78.3306L346.275 78.3306C349.983 78.3306 353.409 80.3087 355.263 83.5198L375.601 118.747C377.455 121.958 377.455 125.915 375.601 129.126L355.263 164.353C353.409 167.564 349.983 169.542 346.275 169.542L305.598 169.542C301.89 169.542 298.464 167.564 296.61 164.353L276.271 129.126C274.417 125.915 274.417 121.958 276.271 118.747L296.61 83.5198Z" fill="url(#paint5_radial_50_62)" fill-opacity="0.2"/>
<path d="M296.984 83.736C298.761 80.6587 302.044 78.7631 305.598 78.7631L346.275 78.7631C349.828 78.7631 353.112 80.6587 354.888 83.736L375.227 118.963C377.004 122.041 377.004 125.832 375.227 128.909L354.888 164.137C353.112 167.214 349.828 169.11 346.275 169.11L305.598 169.11C302.044 169.11 298.761 167.214 296.984 164.137L276.646 128.909C274.869 125.832 274.869 122.041 276.646 118.963L296.984 83.736Z" stroke="#7391FF" stroke-width="0.864868"/>
</g>
<path d="M343.96 102H307.915C305.202 102 303 104.202 303 106.915V142.96C303 145.673 305.202 147.875 307.915 147.875H343.96C346.673 147.875 348.875 145.673 348.875 142.96V106.915C348.875 104.202 346.673 102 343.96 102ZM327.965 137.778C327.965 142.243 325.344 144.281 321.524 144.281C318.073 144.281 316.076 142.499 315.052 140.338L318.565 138.219C319.241 139.417 319.855 140.431 321.34 140.431C322.753 140.431 323.654 139.878 323.654 137.717V123.064H327.965V137.778ZM338.164 144.281C334.16 144.281 331.569 142.376 330.31 139.878L333.822 137.85C334.744 139.355 335.952 140.472 338.072 140.472C339.854 140.472 341 139.581 341 138.342C341 136.867 339.833 136.345 337.857 135.474L336.782 135.014C333.669 133.693 331.61 132.024 331.61 128.511C331.61 125.275 334.078 122.818 337.918 122.818C340.663 122.818 342.629 123.77 344.042 126.269L340.683 128.419C339.946 127.098 339.147 126.576 337.908 126.576C336.648 126.576 335.85 127.375 335.85 128.419C335.85 129.709 336.648 130.232 338.502 131.041L339.577 131.501C343.243 133.068 345.301 134.676 345.301 138.28C345.301 142.151 342.25 144.281 338.164 144.281Z" fill="white"/>
<g filter="url(#filter6_b_50_62)">
<path d="M42.6098 130.52C44.4637 127.309 47.8899 125.331 51.5978 125.331L92.2748 125.331C95.9827 125.331 99.4089 127.309 101.263 130.52L121.601 165.747C123.455 168.958 123.455 172.915 121.601 176.126L101.263 211.353C99.4089 214.564 95.9827 216.542 92.2748 216.542L51.5978 216.542C47.8899 216.542 44.4637 214.564 42.6098 211.353L22.2713 176.126C20.4173 172.915 20.4173 168.958 22.2713 165.747L42.6098 130.52Z" fill="url(#paint6_radial_50_62)" fill-opacity="0.2"/>
<path d="M42.9843 130.736C44.761 127.659 48.0444 125.763 51.5978 125.763L92.2748 125.763C95.8282 125.763 99.1116 127.659 100.888 130.736L121.227 165.963C123.004 169.041 123.004 172.832 121.227 175.909L100.888 211.137C99.1116 214.214 95.8282 216.11 92.2748 216.11L51.5978 216.11C48.0444 216.11 44.761 214.214 42.9843 211.137L22.6458 175.909C20.8691 172.832 20.8691 169.041 22.6458 165.963L42.9843 130.736Z" stroke="#7391FF" stroke-width="0.864868"/>
</g>
<path d="M84.0117 161.004C86.6644 161.004 89.2084 159.95 91.0842 158.074C92.9599 156.199 94.0137 153.655 94.0137 151.002C94.0137 148.349 92.9599 145.805 91.0842 143.93C89.2084 142.054 86.6644 141 84.0117 141H64.0078C61.3567 141 58.8141 142.053 56.9395 143.928C55.0649 145.802 54.0117 148.345 54.0117 150.996C54.0117 153.647 55.0649 156.19 56.9395 158.064C58.8141 159.939 61.3567 160.992 64.0078 160.992C61.3551 160.992 58.8111 162.046 56.9354 163.922C55.0596 165.797 54.0059 168.341 54.0059 170.994C54.0059 173.647 55.0596 176.191 56.9354 178.067C58.8111 179.942 61.3551 180.996 64.0078 180.996C62.0296 180.995 60.0955 181.58 58.45 182.678C56.8046 183.777 55.5217 185.338 54.7636 187.165C54.0055 188.992 53.8063 191.003 54.191 192.944C54.5758 194.884 55.5274 196.667 56.9254 198.066C58.3233 199.466 60.105 200.42 62.0449 200.807C63.9849 201.194 65.9961 200.997 67.8241 200.241C69.6522 199.485 71.215 198.204 72.315 196.56C73.415 194.916 74.0027 192.982 74.0039 191.004V161.004H84.0117ZM84.0117 161.004C82.0347 161.004 80.102 161.59 78.4582 162.689C76.8143 163.787 75.5331 165.348 74.7765 167.175C74.02 169.001 73.822 171.011 74.2077 172.95C74.5934 174.889 75.5454 176.67 76.9434 178.068C78.3414 179.466 80.1225 180.418 82.0616 180.804C84.0006 181.19 86.0105 180.992 87.8371 180.235C89.6636 179.479 91.2248 178.197 92.3232 176.554C93.4216 174.91 94.0078 172.977 94.0078 171C94.0075 168.349 92.9543 165.807 91.0797 163.932C89.2051 162.057 86.6628 161.004 84.0117 161.004Z" fill="white"/>
<g filter="url(#filter7_b_50_62)">
<path d="M127.61 179.52C129.464 176.309 132.89 174.331 136.598 174.331L177.275 174.331C180.983 174.331 184.409 176.309 186.263 179.52L206.601 214.747C208.455 217.958 208.455 221.915 206.601 225.126L186.263 260.353C184.409 263.564 180.983 265.542 177.275 265.542L136.598 265.542C132.89 265.542 129.464 263.564 127.61 260.353L107.271 225.126C105.417 221.915 105.417 217.958 107.271 214.747L127.61 179.52Z" fill="url(#paint7_radial_50_62)" fill-opacity="0.2"/>
<path d="M127.984 179.736C129.761 176.659 133.044 174.763 136.598 174.763L177.275 174.763C180.828 174.763 184.112 176.659 185.888 179.736L206.227 214.963C208.004 218.041 208.004 221.832 206.227 224.909L185.888 260.137C184.112 263.214 180.828 265.11 177.275 265.11L136.598 265.11C133.044 265.11 129.761 263.214 127.984 260.137L107.646 224.909C105.869 221.832 105.869 218.041 107.646 214.963L127.984 179.736Z" stroke="#7391FF" stroke-width="0.864868"/>
</g>
<path d="M161.973 194H182V239L161.973 194ZM148.027 194H128V239L148.027 194ZM155 210.652L167.598 239H159.043L155.445 230H146.223L155 210.652Z" fill="white"/>
<g filter="url(#filter8_b_50_62)">
<path d="M211.61 130.52C213.464 127.309 216.89 125.331 220.598 125.331L261.275 125.331C264.983 125.331 268.409 127.309 270.263 130.52L290.601 165.747C292.455 168.958 292.455 172.915 290.601 176.126L270.263 211.353C268.409 214.564 264.983 216.542 261.275 216.542L220.598 216.542C216.89 216.542 213.464 214.564 211.61 211.353L191.271 176.126C189.417 172.915 189.417 168.958 191.271 165.747L211.61 130.52Z" fill="url(#paint8_radial_50_62)" fill-opacity="0.2"/>
<path d="M211.984 130.736C213.761 127.659 217.044 125.763 220.598 125.763L261.275 125.763C264.828 125.763 268.112 127.659 269.888 130.736L290.227 165.963C292.004 169.041 292.004 172.832 290.227 175.909L269.888 211.137C268.112 214.214 264.828 216.11 261.275 216.11L220.598 216.11C217.044 216.11 213.761 214.214 211.984 211.137L191.646 175.909C189.869 172.832 189.869 169.041 191.646 165.963L211.984 130.736Z" stroke="#7391FF" stroke-width="0.864868"/>
</g>
<path d="M258.848 144H221.142C218.303 144 216 146.303 216 149.142V186.848C216 189.687 218.303 191.99 221.142 191.99H258.848C261.687 191.99 263.99 189.687 263.99 186.848V149.142C263.99 146.303 261.687 144 258.848 144ZM245.704 185.102C244.805 185.263 244.472 184.706 244.472 184.245C244.472 183.667 244.494 180.71 244.494 178.321C244.494 176.65 243.937 175.59 243.283 175.033C247.247 174.593 251.425 174.047 251.425 167.202C251.425 165.253 250.728 164.278 249.593 163.025C249.775 162.564 250.386 160.668 249.411 158.204C247.922 157.743 244.515 160.122 244.515 160.122C243.101 159.725 241.57 159.522 240.059 159.522C238.549 159.522 237.017 159.725 235.603 160.122C235.603 160.122 232.197 157.743 230.708 158.204C229.733 160.657 230.333 162.553 230.525 163.025C229.39 164.278 228.854 165.253 228.854 167.202C228.854 174.015 232.85 174.593 236.813 175.033C236.299 175.493 235.839 176.286 235.678 177.421C234.66 177.882 232.057 178.675 230.504 175.932C229.529 174.24 227.772 174.101 227.772 174.101C226.037 174.079 227.655 175.193 227.655 175.193C228.812 175.729 229.626 177.786 229.626 177.786C230.665 180.967 235.635 179.896 235.635 179.896C235.635 181.385 235.657 183.806 235.657 184.245C235.657 184.706 235.335 185.263 234.425 185.102C227.355 182.735 222.406 176.007 222.406 168.145C222.406 158.311 229.926 150.845 239.759 150.845C249.593 150.845 257.563 158.311 257.563 168.145C257.573 176.007 252.774 182.745 245.704 185.102ZM235.196 178.557C234.992 178.6 234.8 178.514 234.778 178.375C234.757 178.214 234.896 178.075 235.099 178.032C235.303 178.011 235.496 178.096 235.517 178.236C235.549 178.375 235.41 178.514 235.196 178.557ZM234.178 178.46C234.178 178.6 234.018 178.718 233.803 178.718C233.568 178.739 233.407 178.621 233.407 178.46C233.407 178.321 233.568 178.203 233.782 178.203C233.985 178.182 234.178 178.3 234.178 178.46ZM232.711 178.343C232.668 178.482 232.454 178.546 232.272 178.482C232.068 178.439 231.929 178.278 231.972 178.139C232.014 178 232.229 177.936 232.411 177.978C232.625 178.043 232.764 178.203 232.711 178.343ZM231.393 177.764C231.297 177.882 231.093 177.861 230.933 177.7C230.772 177.561 230.729 177.357 230.836 177.261C230.933 177.143 231.136 177.164 231.297 177.325C231.436 177.464 231.49 177.679 231.393 177.764ZM230.418 176.789C230.322 176.854 230.14 176.789 230.022 176.629C229.904 176.468 229.904 176.286 230.022 176.211C230.14 176.115 230.322 176.19 230.418 176.35C230.536 176.511 230.536 176.704 230.418 176.789ZM229.722 175.75C229.626 175.847 229.465 175.793 229.347 175.686C229.229 175.547 229.208 175.386 229.304 175.311C229.401 175.215 229.561 175.268 229.679 175.375C229.797 175.515 229.818 175.675 229.722 175.75ZM229.004 174.958C228.962 175.054 228.822 175.076 228.704 175.001C228.565 174.936 228.501 174.818 228.544 174.722C228.587 174.658 228.704 174.626 228.844 174.679C228.983 174.754 229.047 174.872 229.004 174.958Z" fill="white"/>
<g filter="url(#filter9_b_50_62)">
<path d="M211.61 323.52C213.464 320.309 216.89 318.331 220.598 318.331L261.275 318.331C264.983 318.331 268.409 320.309 270.263 323.52L290.601 358.747C292.455 361.958 292.455 365.915 290.601 369.126L270.263 404.353C268.409 407.564 264.983 409.542 261.275 409.542L220.598 409.542C216.89 409.542 213.464 407.564 211.61 404.353L191.271 369.126C189.417 365.915 189.417 361.958 191.271 358.747L211.61 323.52Z" fill="url(#paint9_radial_50_62)" fill-opacity="0.2"/>
<path d="M211.984 323.736C213.761 320.659 217.044 318.763 220.598 318.763L261.275 318.763C264.828 318.763 268.112 320.659 269.888 323.736L290.227 358.963C292.004 362.041 292.004 365.832 290.227 368.909L269.888 404.137C268.112 407.214 264.828 409.11 261.275 409.11L220.598 409.11C217.044 409.11 213.761 407.214 211.984 404.137L191.646 368.909C189.869 365.832 189.869 362.041 191.646 358.963L211.984 323.736Z" stroke="#7391FF" stroke-width="0.864868"/>
</g>
<path d="M259.158 344H248.136L240.108 356.7L233.228 344H208L240.108 399L272.217 344H259.158ZM215.984 348.587H223.696L240.108 376.997L256.507 348.587H264.218L240.108 389.898L215.984 348.587Z" fill="white"/>
<g filter="url(#filter10_b_50_62)">
<path d="M296.61 274.52C298.464 271.309 301.89 269.331 305.598 269.331L346.275 269.331C349.983 269.331 353.409 271.309 355.263 274.52L375.601 309.747C377.455 312.958 377.455 316.915 375.601 320.126L355.263 355.353C353.409 358.564 349.983 360.542 346.275 360.542L305.598 360.542C301.89 360.542 298.464 358.564 296.61 355.353L276.271 320.126C274.417 316.915 274.417 312.958 276.271 309.747L296.61 274.52Z" fill="url(#paint10_radial_50_62)" fill-opacity="0.2"/>
<path d="M296.984 274.736C298.761 271.659 302.044 269.763 305.598 269.763L346.275 269.763C349.828 269.763 353.112 271.659 354.888 274.736L375.227 309.963C377.004 313.041 377.004 316.832 375.227 319.909L354.888 355.137C353.112 358.214 349.828 360.11 346.275 360.11L305.598 360.11C302.044 360.11 298.761 358.214 296.984 355.137L276.646 319.909C274.869 316.832 274.869 313.041 276.646 309.963L296.984 274.736Z" stroke="#7391FF" stroke-width="0.864868"/>
</g>
<path d="M322.6 316.269H331.4L327 305.689L322.6 316.269ZM327 289L303 297.593L306.673 329.435L327 340.742L347.327 329.435L351 297.593L327 289ZM342.038 328.476H336.424L333.398 320.923H320.625L317.599 328.476H311.974L327 294.717L342.038 328.476Z" fill="white"/>
<g filter="url(#filter11_b_50_62)">
<path d="M299.567 178.491C300.884 176.21 303.318 174.805 305.952 174.805L349.048 174.805C351.682 174.805 354.116 176.21 355.433 178.491L376.981 215.813C378.298 218.095 378.298 220.905 376.981 223.186L355.433 260.509C354.116 262.79 351.682 264.195 349.048 264.195L305.952 264.195C303.318 264.195 300.884 262.79 299.567 260.509L278.019 223.186C276.702 220.905 276.702 218.095 278.019 215.813L299.567 178.491Z" fill="url(#paint11_radial_50_62)" fill-opacity="0.2"/>
<path d="M299.833 178.645C301.095 176.458 303.428 175.112 305.952 175.112L349.048 175.112C351.572 175.112 353.905 176.458 355.167 178.645L376.715 215.967C377.977 218.153 377.977 220.846 376.715 223.033L355.167 260.355C353.905 262.541 351.572 263.888 349.048 263.888L305.952 263.888C303.428 263.888 301.095 262.541 299.833 260.355L278.285 223.033C277.023 220.846 277.023 218.153 278.285 215.967L299.833 178.645Z" stroke="#7391FF" stroke-width="0.614393"/>
</g>
<path d="M328.153 201.023C349.056 201.023 365.13 209.829 365.13 219.5C365.13 229.171 349.044 237.976 328.153 237.976C307.249 237.976 291.175 229.171 291.175 219.5C291.175 209.829 307.261 201.023 328.153 201.023ZM328.153 198.975C306.603 198.975 289.126 208.158 289.126 219.5C289.126 230.842 306.603 240.025 328.153 240.025C349.702 240.025 367.179 230.842 367.179 219.5C367.179 208.158 349.702 198.975 328.153 198.975ZM315.737 217.854C314.774 222.793 311.371 222.281 307.188 222.281L308.859 213.67C313.493 213.67 316.64 213.17 315.737 217.854ZM301.005 231H305.481L306.542 225.537C311.554 225.537 314.664 225.903 317.542 223.207C320.725 220.28 321.555 215.073 319.286 212.463C318.103 211.097 316.201 210.426 313.615 210.426H304.993L301.005 231ZM323.652 204.95H328.104L327.043 210.414C330.884 210.414 334.446 210.134 336.165 211.719C337.97 213.378 337.104 215.5 335.153 225.512H330.641C332.519 215.829 332.872 215.024 332.189 214.292C331.531 213.585 330.031 213.731 326.409 213.731L324.116 225.512H319.664L323.652 204.95ZM350.715 217.854C349.739 222.866 346.239 222.281 342.165 222.281L343.836 213.67C348.495 213.67 351.617 213.17 350.715 217.854ZM335.982 231H340.47L341.531 225.537C346.8 225.537 349.715 225.842 352.532 223.207C355.715 220.28 356.544 215.073 354.276 212.463C353.093 211.097 351.19 210.426 348.605 210.426H339.982L335.982 231Z" fill="white"/>
<g filter="url(#filter12_b_50_62)">
<path d="M207.832 228.331C211.405 222.143 218.007 218.331 225.153 218.331L254.72 218.331C261.865 218.331 268.468 222.143 272.04 228.331L286.824 253.936C290.396 260.124 290.396 267.748 286.824 273.936L272.04 299.542C268.468 305.73 261.865 309.542 254.72 309.542L225.153 309.542C218.007 309.542 211.405 305.73 207.832 299.542L193.049 273.936C189.476 267.748 189.476 260.124 193.049 253.936L207.832 228.331Z" fill="url(#paint12_radial_50_62)" fill-opacity="0.2"/>
<path d="M208.207 228.547C211.702 222.493 218.162 218.763 225.153 218.763L254.72 218.763C261.711 218.763 268.17 222.493 271.666 228.547L286.449 254.153C289.945 260.207 289.945 267.666 286.449 273.72L271.666 299.326C268.17 305.38 261.711 309.11 254.72 309.11L225.153 309.11C218.162 309.11 211.702 305.38 208.207 299.326L193.423 273.72C189.928 267.666 189.928 260.207 193.423 254.153L208.207 228.547Z" stroke="#7391FF" stroke-width="0.864868"/>
</g>
<path d="M208.108 261.29H205.983C205.922 260.941 205.811 260.633 205.648 260.364C205.485 260.091 205.282 259.86 205.04 259.67C204.797 259.481 204.521 259.339 204.21 259.244C203.903 259.146 203.572 259.097 203.216 259.097C202.583 259.097 202.023 259.256 201.534 259.574C201.045 259.888 200.663 260.35 200.386 260.96C200.11 261.566 199.972 262.307 199.972 263.182C199.972 264.072 200.11 264.822 200.386 265.432C200.667 266.038 201.049 266.496 201.534 266.807C202.023 267.114 202.581 267.267 203.21 267.267C203.559 267.267 203.884 267.222 204.188 267.131C204.494 267.036 204.769 266.898 205.011 266.716C205.258 266.534 205.464 266.311 205.631 266.045C205.801 265.78 205.919 265.477 205.983 265.136L208.108 265.148C208.028 265.701 207.856 266.22 207.591 266.705C207.33 267.189 206.987 267.617 206.562 267.989C206.138 268.356 205.642 268.644 205.074 268.852C204.506 269.057 203.875 269.159 203.182 269.159C202.159 269.159 201.246 268.922 200.443 268.449C199.64 267.975 199.008 267.292 198.545 266.398C198.083 265.504 197.852 264.432 197.852 263.182C197.852 261.928 198.085 260.856 198.551 259.966C199.017 259.072 199.652 258.388 200.455 257.915C201.258 257.441 202.167 257.205 203.182 257.205C203.83 257.205 204.432 257.295 204.989 257.477C205.545 257.659 206.042 257.926 206.477 258.278C206.913 258.627 207.271 259.055 207.551 259.562C207.835 260.066 208.021 260.642 208.108 261.29ZM209.947 269V260.273H212.004V269H209.947ZM210.982 259.034C210.656 259.034 210.375 258.926 210.141 258.71C209.906 258.491 209.788 258.227 209.788 257.92C209.788 257.61 209.906 257.347 210.141 257.131C210.375 256.911 210.656 256.801 210.982 256.801C211.311 256.801 211.591 256.911 211.822 257.131C212.057 257.347 212.175 257.61 212.175 257.92C212.175 258.227 212.057 258.491 211.822 258.71C211.591 258.926 211.311 259.034 210.982 259.034ZM216.176 263.886V269H214.119V260.273H216.085V261.756H216.188C216.388 261.267 216.708 260.879 217.148 260.591C217.591 260.303 218.138 260.159 218.79 260.159C219.392 260.159 219.917 260.288 220.364 260.545C220.814 260.803 221.163 261.176 221.409 261.665C221.659 262.153 221.782 262.746 221.778 263.443V269H219.722V263.761C219.722 263.178 219.57 262.722 219.267 262.392C218.968 262.062 218.553 261.898 218.023 261.898C217.663 261.898 217.343 261.977 217.062 262.136C216.786 262.292 216.568 262.517 216.409 262.812C216.254 263.108 216.176 263.466 216.176 263.886ZM227.733 269.17C226.858 269.17 226.102 268.989 225.466 268.625C224.833 268.258 224.347 267.739 224.006 267.068C223.665 266.394 223.494 265.6 223.494 264.688C223.494 263.79 223.665 263.002 224.006 262.324C224.35 261.642 224.831 261.112 225.449 260.733C226.066 260.35 226.792 260.159 227.625 260.159C228.163 260.159 228.67 260.246 229.148 260.42C229.629 260.591 230.053 260.856 230.42 261.216C230.792 261.576 231.083 262.034 231.295 262.591C231.508 263.144 231.614 263.803 231.614 264.568V265.199H224.46V263.812H229.642C229.638 263.419 229.553 263.068 229.386 262.761C229.22 262.451 228.987 262.206 228.688 262.028C228.392 261.85 228.047 261.761 227.653 261.761C227.233 261.761 226.864 261.864 226.545 262.068C226.227 262.269 225.979 262.534 225.801 262.864C225.627 263.189 225.538 263.547 225.534 263.938V265.148C225.534 265.655 225.627 266.091 225.812 266.455C225.998 266.814 226.258 267.091 226.591 267.284C226.924 267.473 227.314 267.568 227.761 267.568C228.061 267.568 228.331 267.527 228.574 267.443C228.816 267.356 229.027 267.229 229.205 267.062C229.383 266.896 229.517 266.689 229.608 266.443L231.528 266.659C231.407 267.167 231.176 267.61 230.835 267.989C230.498 268.364 230.066 268.655 229.54 268.864C229.013 269.068 228.411 269.17 227.733 269.17ZM233.354 269V260.273H235.32V261.756H235.422C235.604 261.256 235.905 260.866 236.325 260.585C236.746 260.301 237.248 260.159 237.831 260.159C238.422 260.159 238.92 260.303 239.325 260.591C239.734 260.875 240.022 261.263 240.189 261.756H240.28C240.473 261.271 240.799 260.884 241.257 260.597C241.719 260.305 242.267 260.159 242.899 260.159C243.702 260.159 244.357 260.413 244.865 260.92C245.373 261.428 245.626 262.169 245.626 263.142V269H243.564V263.46C243.564 262.919 243.42 262.523 243.132 262.273C242.844 262.019 242.492 261.892 242.075 261.892C241.579 261.892 241.191 262.047 240.911 262.358C240.634 262.665 240.496 263.064 240.496 263.557V269H238.479V263.375C238.479 262.924 238.342 262.564 238.07 262.295C237.801 262.027 237.448 261.892 237.013 261.892C236.717 261.892 236.448 261.968 236.206 262.119C235.964 262.267 235.77 262.477 235.626 262.75C235.482 263.019 235.411 263.333 235.411 263.693V269H233.354ZM250.224 269.176C249.671 269.176 249.173 269.078 248.73 268.881C248.291 268.68 247.942 268.384 247.685 267.994C247.431 267.604 247.304 267.123 247.304 266.551C247.304 266.059 247.395 265.652 247.577 265.33C247.759 265.008 248.007 264.75 248.321 264.557C248.635 264.364 248.99 264.218 249.384 264.119C249.781 264.017 250.192 263.943 250.616 263.898C251.128 263.845 251.543 263.797 251.861 263.756C252.179 263.71 252.41 263.642 252.554 263.551C252.702 263.456 252.776 263.311 252.776 263.114V263.08C252.776 262.652 252.649 262.32 252.395 262.085C252.141 261.85 251.776 261.733 251.298 261.733C250.795 261.733 250.395 261.843 250.099 262.062C249.808 262.282 249.611 262.542 249.509 262.841L247.588 262.568C247.74 262.038 247.99 261.595 248.338 261.239C248.687 260.879 249.113 260.61 249.616 260.432C250.12 260.25 250.677 260.159 251.287 260.159C251.707 260.159 252.126 260.208 252.543 260.307C252.959 260.405 253.34 260.568 253.685 260.795C254.029 261.019 254.306 261.324 254.514 261.71C254.726 262.097 254.832 262.58 254.832 263.159V269H252.855V267.801H252.787C252.662 268.044 252.486 268.271 252.259 268.483C252.035 268.691 251.753 268.86 251.412 268.989C251.075 269.114 250.679 269.176 250.224 269.176ZM250.759 267.665C251.171 267.665 251.529 267.583 251.832 267.42C252.135 267.254 252.368 267.034 252.531 266.761C252.698 266.489 252.781 266.191 252.781 265.869V264.841C252.717 264.894 252.607 264.943 252.452 264.989C252.3 265.034 252.13 265.074 251.94 265.108C251.751 265.142 251.563 265.172 251.378 265.199C251.192 265.225 251.031 265.248 250.895 265.267C250.588 265.309 250.313 265.377 250.071 265.472C249.829 265.566 249.637 265.699 249.497 265.869C249.357 266.036 249.287 266.252 249.287 266.517C249.287 266.896 249.425 267.182 249.702 267.375C249.978 267.568 250.33 267.665 250.759 267.665ZM260.636 266.841V265.165L265.574 257.364H266.972V259.75H266.119L262.795 265.017V265.108H269.688V266.841H260.636ZM266.188 269V266.33L266.21 265.58V257.364H268.199V269H266.188ZM275.56 269H271.616V257.364H275.639C276.795 257.364 277.787 257.597 278.616 258.062C279.45 258.525 280.09 259.189 280.537 260.057C280.984 260.924 281.207 261.962 281.207 263.17C281.207 264.383 280.982 265.424 280.531 266.295C280.084 267.167 279.438 267.835 278.594 268.301C277.753 268.767 276.741 269 275.56 269ZM273.724 267.176H275.457C276.268 267.176 276.944 267.028 277.486 266.733C278.027 266.434 278.435 265.989 278.707 265.398C278.98 264.803 279.116 264.061 279.116 263.17C279.116 262.28 278.98 261.542 278.707 260.955C278.435 260.364 278.031 259.922 277.497 259.631C276.967 259.335 276.308 259.188 275.52 259.188H273.724V267.176Z" fill="white"/>
<defs>
<filter id="filter0_b_50_62" x="97.2322" y="260.682" width="119.408" height="108.509" filterUnits="userSpaceOnUse" color-interpolation-filters="sRGB">
<feFlood flood-opacity="0" result="BackgroundImageFix"/>
<feGaussianBlur in="BackgroundImageFix" stdDeviation="4.32434"/>
<feComposite in2="SourceAlpha" operator="in" result="effect1_backgroundBlur_50_62"/>
<feBlend mode="normal" in="SourceGraphic" in2="effect1_backgroundBlur_50_62" result="shape"/>
</filter>
<filter id="filter1_b_50_62" x="12.2322" y="213.682" width="119.408" height="108.509" filterUnits="userSpaceOnUse" color-interpolation-filters="sRGB">
<feFlood flood-opacity="0" result="BackgroundImageFix"/>
<feGaussianBlur in="BackgroundImageFix" stdDeviation="4.32434"/>
<feComposite in2="SourceAlpha" operator="in" result="effect1_backgroundBlur_50_62"/>
<feBlend mode="normal" in="SourceGraphic" in2="effect1_backgroundBlur_50_62" result="shape"/>
</filter>
<filter id="filter2_b_50_62" x="12.2322" y="17.6819" width="119.408" height="108.509" filterUnits="userSpaceOnUse" color-interpolation-filters="sRGB">
<feFlood flood-opacity="0" result="BackgroundImageFix"/>
<feGaussianBlur in="BackgroundImageFix" stdDeviation="4.32434"/>
<feComposite in2="SourceAlpha" operator="in" result="effect1_backgroundBlur_50_62"/>
<feBlend mode="normal" in="SourceGraphic" in2="effect1_backgroundBlur_50_62" result="shape"/>
</filter>
<filter id="filter3_b_50_62" x="97.2322" y="65.6819" width="119.408" height="108.509" filterUnits="userSpaceOnUse" color-interpolation-filters="sRGB">
<feFlood flood-opacity="0" result="BackgroundImageFix"/>
<feGaussianBlur in="BackgroundImageFix" stdDeviation="4.32434"/>
<feComposite in2="SourceAlpha" operator="in" result="effect1_backgroundBlur_50_62"/>
<feBlend mode="normal" in="SourceGraphic" in2="effect1_backgroundBlur_50_62" result="shape"/>
</filter>
<filter id="filter4_b_50_62" x="181.232" y="18.6819" width="119.408" height="108.509" filterUnits="userSpaceOnUse" color-interpolation-filters="sRGB">
<feFlood flood-opacity="0" result="BackgroundImageFix"/>
<feGaussianBlur in="BackgroundImageFix" stdDeviation="4.32434"/>
<feComposite in2="SourceAlpha" operator="in" result="effect1_backgroundBlur_50_62"/>
<feBlend mode="normal" in="SourceGraphic" in2="effect1_backgroundBlur_50_62" result="shape"/>
</filter>
<filter id="filter5_b_50_62" x="266.232" y="69.6819" width="119.408" height="108.509" filterUnits="userSpaceOnUse" color-interpolation-filters="sRGB">
<feFlood flood-opacity="0" result="BackgroundImageFix"/>
<feGaussianBlur in="BackgroundImageFix" stdDeviation="4.32434"/>
<feComposite in2="SourceAlpha" operator="in" result="effect1_backgroundBlur_50_62"/>
<feBlend mode="normal" in="SourceGraphic" in2="effect1_backgroundBlur_50_62" result="shape"/>
</filter>
<filter id="filter6_b_50_62" x="12.2322" y="116.682" width="119.408" height="108.509" filterUnits="userSpaceOnUse" color-interpolation-filters="sRGB">
<feFlood flood-opacity="0" result="BackgroundImageFix"/>
<feGaussianBlur in="BackgroundImageFix" stdDeviation="4.32434"/>
<feComposite in2="SourceAlpha" operator="in" result="effect1_backgroundBlur_50_62"/>
<feBlend mode="normal" in="SourceGraphic" in2="effect1_backgroundBlur_50_62" result="shape"/>
</filter>
<filter id="filter7_b_50_62" x="97.2322" y="165.682" width="119.408" height="108.509" filterUnits="userSpaceOnUse" color-interpolation-filters="sRGB">
<feFlood flood-opacity="0" result="BackgroundImageFix"/>
<feGaussianBlur in="BackgroundImageFix" stdDeviation="4.32434"/>
<feComposite in2="SourceAlpha" operator="in" result="effect1_backgroundBlur_50_62"/>
<feBlend mode="normal" in="SourceGraphic" in2="effect1_backgroundBlur_50_62" result="shape"/>
</filter>
<filter id="filter8_b_50_62" x="181.232" y="116.682" width="119.408" height="108.509" filterUnits="userSpaceOnUse" color-interpolation-filters="sRGB">
<feFlood flood-opacity="0" result="BackgroundImageFix"/>
<feGaussianBlur in="BackgroundImageFix" stdDeviation="4.32434"/>
<feComposite in2="SourceAlpha" operator="in" result="effect1_backgroundBlur_50_62"/>
<feBlend mode="normal" in="SourceGraphic" in2="effect1_backgroundBlur_50_62" result="shape"/>
</filter>
<filter id="filter9_b_50_62" x="181.232" y="309.682" width="119.408" height="108.509" filterUnits="userSpaceOnUse" color-interpolation-filters="sRGB">
<feFlood flood-opacity="0" result="BackgroundImageFix"/>
<feGaussianBlur in="BackgroundImageFix" stdDeviation="4.32434"/>
<feComposite in2="SourceAlpha" operator="in" result="effect1_backgroundBlur_50_62"/>
<feBlend mode="normal" in="SourceGraphic" in2="effect1_backgroundBlur_50_62" result="shape"/>
</filter>
<filter id="filter10_b_50_62" x="266.232" y="260.682" width="119.408" height="108.509" filterUnits="userSpaceOnUse" color-interpolation-filters="sRGB">
<feFlood flood-opacity="0" result="BackgroundImageFix"/>
<feGaussianBlur in="BackgroundImageFix" stdDeviation="4.32434"/>
<feComposite in2="SourceAlpha" operator="in" result="effect1_backgroundBlur_50_62"/>
<feBlend mode="normal" in="SourceGraphic" in2="effect1_backgroundBlur_50_62" result="shape"/>
</filter>
<filter id="filter11_b_50_62" x="270.887" y="168.661" width="113.226" height="101.678" filterUnits="userSpaceOnUse" color-interpolation-filters="sRGB">
<feFlood flood-opacity="0" result="BackgroundImageFix"/>
<feGaussianBlur in="BackgroundImageFix" stdDeviation="3.07197"/>
<feComposite in2="SourceAlpha" operator="in" result="effect1_backgroundBlur_50_62"/>
<feBlend mode="normal" in="SourceGraphic" in2="effect1_backgroundBlur_50_62" result="shape"/>
</filter>
<filter id="filter12_b_50_62" x="181.72" y="209.682" width="116.432" height="108.509" filterUnits="userSpaceOnUse" color-interpolation-filters="sRGB">
<feFlood flood-opacity="0" result="BackgroundImageFix"/>
<feGaussianBlur in="BackgroundImageFix" stdDeviation="4.32434"/>
<feComposite in2="SourceAlpha" operator="in" result="effect1_backgroundBlur_50_62"/>
<feBlend mode="normal" in="SourceGraphic" in2="effect1_backgroundBlur_50_62" result="shape"/>
</filter>
<radialGradient id="paint0_radial_50_62" cx="0" cy="0" r="1" gradientUnits="userSpaceOnUse" gradientTransform="translate(136.892 355.001) rotate(-33.222) scale(73.4031 85.0222)">
<stop stop-color="#914DFF"/>
<stop offset="0.976" stop-color="#4522AA"/>
</radialGradient>
<radialGradient id="paint1_radial_50_62" cx="0" cy="0" r="1" gradientUnits="userSpaceOnUse" gradientTransform="translate(51.8921 308.001) rotate(-33.222) scale(73.4031 85.0222)">
<stop stop-color="#914DFF"/>
<stop offset="0.976" stop-color="#4522AA"/>
</radialGradient>
<radialGradient id="paint2_radial_50_62" cx="0" cy="0" r="1" gradientUnits="userSpaceOnUse" gradientTransform="translate(51.8921 112.001) rotate(-33.222) scale(73.4031 85.0222)">
<stop stop-color="#914DFF"/>
<stop offset="0.976" stop-color="#4522AA"/>
</radialGradient>
<radialGradient id="paint3_radial_50_62" cx="0" cy="0" r="1" gradientUnits="userSpaceOnUse" gradientTransform="translate(136.892 160.001) rotate(-33.222) scale(73.4031 85.0222)">
<stop stop-color="#914DFF"/>
<stop offset="0.976" stop-color="#4522AA"/>
</radialGradient>
<radialGradient id="paint4_radial_50_62" cx="0" cy="0" r="1" gradientUnits="userSpaceOnUse" gradientTransform="translate(220.892 113.001) rotate(-33.222) scale(73.4031 85.0222)">
<stop stop-color="#914DFF"/>
<stop offset="0.976" stop-color="#4522AA"/>
</radialGradient>
<radialGradient id="paint5_radial_50_62" cx="0" cy="0" r="1" gradientUnits="userSpaceOnUse" gradientTransform="translate(305.892 164.001) rotate(-33.222) scale(73.4031 85.0222)">
<stop stop-color="#914DFF"/>
<stop offset="0.976" stop-color="#4522AA"/>
</radialGradient>
<radialGradient id="paint6_radial_50_62" cx="0" cy="0" r="1" gradientUnits="userSpaceOnUse" gradientTransform="translate(51.8921 211.001) rotate(-33.222) scale(73.4031 85.0222)">
<stop stop-color="#914DFF"/>
<stop offset="0.976" stop-color="#4522AA"/>
</radialGradient>
<radialGradient id="paint7_radial_50_62" cx="0" cy="0" r="1" gradientUnits="userSpaceOnUse" gradientTransform="translate(136.892 260.001) rotate(-33.222) scale(73.4031 85.0222)">
<stop stop-color="#914DFF"/>
<stop offset="0.976" stop-color="#4522AA"/>
</radialGradient>
<radialGradient id="paint8_radial_50_62" cx="0" cy="0" r="1" gradientUnits="userSpaceOnUse" gradientTransform="translate(220.892 211.001) rotate(-33.222) scale(73.4031 85.0222)">
<stop stop-color="#914DFF"/>
<stop offset="0.976" stop-color="#4522AA"/>
</radialGradient>
<radialGradient id="paint9_radial_50_62" cx="0" cy="0" r="1" gradientUnits="userSpaceOnUse" gradientTransform="translate(220.892 404.001) rotate(-33.222) scale(73.4031 85.0222)">
<stop stop-color="#914DFF"/>
<stop offset="0.976" stop-color="#4522AA"/>
</radialGradient>
<radialGradient id="paint10_radial_50_62" cx="0" cy="0" r="1" gradientUnits="userSpaceOnUse" gradientTransform="translate(305.892 355.001) rotate(-33.222) scale(73.4031 85.0222)">
<stop stop-color="#914DFF"/>
<stop offset="0.976" stop-color="#4522AA"/>
</radialGradient>
<radialGradient id="paint11_radial_50_62" cx="0" cy="0" r="1" gradientUnits="userSpaceOnUse" gradientTransform="translate(307.856 258.764) rotate(-33.222) scale(71.9375 83.3246)">
<stop stop-color="#914DFF"/>
<stop offset="0.976" stop-color="#4522AA"/>
</radialGradient>
<radialGradient id="paint12_radial_50_62" cx="0" cy="0" r="1" gradientUnits="userSpaceOnUse" gradientTransform="translate(219.892 304.001) rotate(-33.222) scale(73.4031 85.0222)">
<stop stop-color="#914DFF"/>
<stop offset="0.976" stop-color="#4522AA"/>
</radialGradient>
</defs>
</svg>
