<svg xmlns="http://www.w3.org/2000/svg" xmlns:xlink="http://www.w3.org/1999/xlink" width="500" zoomAndPan="magnify" viewBox="0 0 375 374.999991" height="500" preserveAspectRatio="xMidYMid meet" version="1.0"><defs><clipPath id="cd6b96c9c2"><path d="M 50.199219 50.199219 L 324.699219 50.199219 L 324.699219 324.699219 L 50.199219 324.699219 Z M 50.199219 50.199219 " clip-rule="nonzero"/></clipPath></defs><g clip-path="url(#cd6b96c9c2)"><path stroke-linecap="butt" transform="matrix(0.717835, 0, 0, 0.717835, 50.2004, 50.200396)" fill-opacity="1" fill="#00d300" fill-rule="nonzero" stroke-linejoin="miter" d="M 191.225577 381.946727 C 85.890346 381.946727 0.498991 296.555373 0.498991 191.225583 C 0.498991 85.890352 85.890346 0.498998 191.225577 0.498998 C 296.555367 0.498998 381.946721 85.890352 381.946721 191.225583 C 381.946721 296.555373 296.555367 381.946727 191.225577 381.946727 Z M 191.225577 381.946727 " stroke="#3fb24f" stroke-width="1" stroke-opacity="1" stroke-miterlimit="10"/></g><path fill="#ffffff" d="M 159.453125 272.875 L 100.4375 196.226562 L 123.1875 178.710938 L 160.261719 226.859375 L 252.0625 115.914062 L 274.183594 134.21875 Z M 159.453125 272.875 " fill-opacity="1" fill-rule="nonzero"/></svg>